<svg xmlns="http://www.w3.org/2000/svg" width="19" height="19" viewBox="0 0 19 19" fill="none">
<path d="M16.25 8H2.75M12.5 2V5M6.5 2V5M7.25 12.5L8.75 14L12.125 10.625M6.35 17H12.65C13.9101 17 14.5402 17 15.0215 16.7548C15.4448 16.539 15.789 16.1948 16.0048 15.7715C16.25 15.2902 16.25 14.6601 16.25 13.4V7.1C16.25 5.83988 16.25 5.20982 16.0048 4.72852C15.789 4.30516 15.4448 3.96095 15.0215 3.74524C14.5402 3.5 13.9101 3.5 12.65 3.5H6.35C5.08988 3.5 4.45982 3.5 3.97852 3.74524C3.55516 3.96095 3.21095 4.30516 2.99524 4.72852C2.75 5.20982 2.75 5.83988 2.75 7.1V13.4C2.75 14.6601 2.75 15.2902 2.99524 15.7715C3.21095 16.1948 3.55516 16.539 3.97852 16.7548C4.45982 17 5.08988 17 6.35 17Z" stroke="#1E1E1E" stroke-width="1.5" stroke-linecap="round" stroke-linejoin="round"/>
</svg>