<svg width="1280" height="701" viewBox="0 0 1280 701" fill="none" xmlns="http://www.w3.org/2000/svg">
<g opacity="0.5">
<g opacity="0.2">
<mask id="mask0_587_9751" style="mask-type:luminance" maskUnits="userSpaceOnUse" x="-128" y="-114" width="1387" height="696">
<path d="M1258.31 12.948C1083.76 -67.365 897.42 -144.745 692.903 -93.1796C513.888 -48.0361 450.348 92.8281 386.683 233.984C302.837 419.855 218.798 606.151 -126.498 578.831L-127.909 574.573C215.584 602.407 299.003 417.512 382.195 233.025C446.363 90.7851 510.398 -51.1881 692.083 -96.9944C896.684 -148.56 1082.43 -72.6242 1256.4 7.2455L1258.29 12.9563L1258.31 12.948Z" fill="white"/>
</mask>
<g mask="url(#mask0_587_9751)">
<path d="M1165.16 -268.16L-251.596 201.316L-84.1756 706.548L1332.58 237.073L1165.16 -268.16Z" fill="url(#paint0_linear_587_9751)"/>
</g>
<mask id="mask1_587_9751" style="mask-type:luminance" maskUnits="userSpaceOnUse" x="-142" y="88" width="1450" height="468">
<path d="M1307.15 160.327C1211.9 286.6 1112.41 296.496 1007.16 264.769C953.55 248.62 898.6 221.629 841.933 193.818C719.362 133.639 588.754 69.5083 448.509 104.14C332.774 132.706 295.281 228.274 257.864 323.733C203.473 462.427 149.116 600.888 -139.205 540.567L-141.33 534.155C144.887 595.256 198.448 458.755 252.068 322.012C290.097 225.044 328.176 127.975 447.192 98.5718C589.775 63.3604 721.442 128.002 845.013 188.683C901.455 216.402 956.196 243.267 1009.31 259.274C1112.83 290.464 1210.75 280.198 1304.83 153.397L1307.13 160.336L1307.15 160.327Z" fill="white"/>
</mask>
<g mask="url(#mask1_587_9751)">
<path d="M1200.62 -161.157L-216.138 308.319L-81.3287 715.139L1335.43 245.664L1200.62 -161.157Z" fill="url(#paint1_linear_587_9751)"/>
</g>
<mask id="mask2_587_9751" style="mask-type:luminance" maskUnits="userSpaceOnUse" x="-145" y="85" width="1448" height="462">
<path d="M1302.46 146.175C1206.39 273.665 1104.72 282.947 996.935 251.283C944.427 235.853 890.567 210.642 835.174 184.744C712.764 127.486 582.843 66.6857 445.168 101.605C331.385 130.442 293.11 224.406 254.912 318.179C199.047 455.276 143.316 591.941 -142.284 531.274L-144.418 524.837C139.146 586.318 194.072 451.588 249.157 316.416C287.959 221.193 326.854 125.745 443.834 96.0707C583.772 60.596 714.769 121.874 838.17 179.609C893.305 205.398 946.931 230.492 999.039 245.804C1105.1 276.957 1205.2 267.304 1300.11 139.254L1302.41 146.192L1302.46 146.175Z" fill="white"/>
</mask>
<g mask="url(#mask2_587_9751)">
<path d="M1199.82 -163.587L-216.943 305.889L-85.736 701.839L1331.02 232.364L1199.82 -163.587Z" fill="url(#paint2_linear_587_9751)"/>
</g>
<mask id="mask3_587_9751" style="mask-type:luminance" maskUnits="userSpaceOnUse" x="-148" y="82" width="1446" height="456">
<path d="M1297.76 131.999C1200.74 260.913 1096.72 269.533 986.245 237.896C934.987 223.22 882.359 199.797 828.397 175.787C706.183 121.383 576.999 63.8969 441.935 99.0631C330.129 128.162 291.073 220.523 252.118 312.6C194.779 448.101 137.674 583.052 -145.33 521.999L-147.472 515.536C133.521 577.396 189.837 444.346 246.372 310.696C285.914 217.201 325.581 123.415 440.534 93.495C577.852 57.7487 708.087 115.721 831.302 170.543C885.03 194.436 937.4 217.751 988.349 232.335C1097.13 263.475 1199.58 254.461 1295.44 124.985L1297.76 131.999Z" fill="white"/>
</mask>
<g mask="url(#mask3_587_9751)">
<path d="M1199.01 -166.016L-217.748 303.459L-90.1102 688.639L1326.65 219.164L1199.01 -166.016Z" fill="url(#paint3_linear_587_9751)"/>
</g>
<mask id="mask4_587_9751" style="mask-type:luminance" maskUnits="userSpaceOnUse" x="-151" y="79" width="1445" height="450">
<path d="M1293.06 117.797C1194.95 248.295 1088.38 256.2 975.053 224.593C925.104 210.678 873.934 189.051 821.596 166.921C699.61 115.389 571.213 61.1163 438.718 96.4874C328.873 125.799 289.061 216.547 249.383 306.946C190.553 440.968 132.032 574.248 -148.368 512.831L-150.518 506.344C127.954 568.566 185.678 437.163 243.687 305.025C283.96 213.234 324.4 121.11 437.301 90.9526C571.991 54.993 701.448 109.693 824.384 161.661C876.522 183.69 927.5 205.242 977.091 219.081C1088.76 250.21 1193.79 241.951 1290.73 110.842L1293.03 117.805L1293.06 117.797Z" fill="white"/>
</mask>
<g mask="url(#mask4_587_9751)">
<path d="M1198.21 -168.446L-218.553 301.03L-94.4429 675.564L1322.32 206.089L1198.21 -168.446Z" fill="url(#paint4_linear_587_9751)"/>
</g>
<mask id="mask5_587_9751" style="mask-type:luminance" maskUnits="userSpaceOnUse" x="-154" y="76" width="1443" height="444">
<path d="M1288.35 103.595C1189.01 235.918 1079.64 243.001 963.236 211.413C914.854 198.285 865.299 178.43 814.752 158.181C693.079 109.436 565.518 58.3609 435.594 93.9368C327.767 123.469 287.19 212.581 246.789 301.301C186.485 433.81 126.507 565.46 -151.398 503.689L-153.539 497.226C122.504 559.837 181.635 429.996 241.094 299.296C282.106 209.234 323.295 118.78 434.102 88.427C566.213 52.2375 694.783 103.757 817.415 152.879C867.771 173.052 917.159 192.824 965.24 205.884C1079.99 237.019 1187.84 229.608 1286.02 96.6398L1288.33 103.603L1288.35 103.595Z" fill="white"/>
</mask>
<g mask="url(#mask5_587_9751)">
<path d="M1197.4 -170.875L-219.359 298.6L-98.7174 662.665L1318.04 193.189L1197.4 -170.875Z" fill="url(#paint5_linear_587_9751)"/>
</g>
<mask id="mask6_587_9751" style="mask-type:luminance" maskUnits="userSpaceOnUse" x="-157" y="73" width="1441" height="438">
<path d="M1283.65 89.4178C1182.91 223.791 1070.5 229.934 950.81 198.324C904.079 185.983 856.398 167.926 807.85 149.516C686.539 103.542 559.866 55.564 432.486 91.3529C326.662 121.055 285.378 208.539 244.296 295.622C182.475 426.66 121.041 556.764 -154.427 494.63L-156.577 488.143C117.112 551.116 177.693 422.796 238.667 293.568C280.353 205.201 322.256 116.4 431.01 85.8932C560.527 49.5072 688.193 97.879 810.488 144.222C858.902 162.565 906.491 180.597 952.822 192.82C1070.9 223.994 1181.8 217.489 1281.37 82.4463L1283.68 89.4095L1283.65 89.4178Z" fill="white"/>
</mask>
<g mask="url(#mask6_587_9751)">
<path d="M1196.59 -173.33L-220.172 296.146L-102.95 649.891L1313.81 180.415L1196.59 -173.33Z" fill="url(#paint6_linear_587_9751)"/>
</g>
<mask id="mask7_587_9751" style="mask-type:luminance" maskUnits="userSpaceOnUse" x="-160" y="68" width="1439" height="434">
<path d="M1278.96 75.2661C1176.66 211.965 1060.87 216.976 937.648 185.367C892.952 173.881 847.329 157.588 800.973 141.009C680.074 97.7896 554.355 52.8591 429.47 88.7943C325.648 118.667 283.683 204.514 241.961 289.919C178.616 419.544 115.682 548.143 -157.382 485.63L-159.54 479.117C111.804 542.479 173.867 415.613 236.358 287.773C278.716 201.101 321.292 113.995 427.927 83.3011C554.858 46.7436 681.569 92.0681 803.444 135.632C849.634 152.126 895.114 168.411 939.561 179.813C1061.21 211.027 1175.47 205.629 1276.61 68.236L1278.94 75.2744L1278.96 75.2661Z" fill="white"/>
</mask>
<g mask="url(#mask7_587_9751)">
<path d="M1195.77 -175.785L-220.985 293.691L-107.101 637.367L1309.66 167.892L1195.77 -175.785Z" fill="url(#paint7_linear_587_9751)"/>
</g>
<mask id="mask8_587_9751" style="mask-type:luminance" maskUnits="userSpaceOnUse" x="-163" y="54" width="1438" height="440">
<path d="M1274.28 61.1143C1170.17 200.438 1050.71 204.166 923.62 172.475C881.133 161.87 837.868 147.324 794.07 132.595C673.6 92.0957 548.886 50.1125 426.529 86.2107C324.751 116.212 282.13 200.414 239.752 284.174C174.857 412.394 110.465 539.614 -160.337 476.713L-162.503 470.175C106.604 533.917 170.158 408.448 234.182 281.961C277.188 196.993 320.412 111.59 424.945 80.7591C549.322 44.047 675.029 86.3407 796.45 127.192C840.156 141.896 883.295 156.4 925.507 166.93C1051.02 198.225 1169.02 194.12 1271.93 54.0509L1274.28 61.1143Z" fill="white"/>
</mask>
<g mask="url(#mask8_587_9751)">
<path d="M1194.97 -178.214L-221.79 291.261L-111.176 625.069L1305.58 155.593L1194.97 -178.214Z" fill="url(#paint8_linear_587_9751)"/>
</g>
<mask id="mask9_587_9751" style="mask-type:luminance" maskUnits="userSpaceOnUse" x="-166" y="39" width="1436" height="446">
<path d="M1269.59 46.9626C1163.45 189.295 1039.83 191.48 908.556 159.732C868.787 150.116 828.173 137.278 787.134 124.33C667.177 86.4688 543.492 47.4246 423.655 83.6608C323.921 113.791 280.694 196.331 237.709 278.43C171.257 405.304 105.315 531.119 -163.267 467.871L-165.425 461.359C101.562 525.497 166.599 401.315 232.148 276.159C275.768 192.876 319.607 109.161 422.012 78.2007C543.845 41.3589 668.497 80.722 789.413 118.877C830.236 131.757 870.633 144.529 910.426 154.136C1040.14 185.54 1162.31 183.002 1267.25 39.8992L1269.59 46.9626Z" fill="white"/>
</mask>
<g mask="url(#mask9_587_9751)">
<path d="M1194.16 -180.669L-222.604 288.807L-115.185 612.971L1301.57 143.495L1194.16 -180.669Z" fill="url(#paint9_linear_587_9751)"/>
</g>
<mask id="mask10_587_9751" style="mask-type:luminance" maskUnits="userSpaceOnUse" x="-169" y="25" width="1434" height="452">
<path d="M1264.87 32.7355C1156.39 178.485 1028.12 178.876 892.265 146.978C855.432 138.335 817.961 127.263 780.189 116.123C660.762 80.8667 538.165 44.6865 420.814 81.0439C323.141 111.27 279.333 192.14 235.75 272.602C167.74 398.13 100.232 522.657 -166.197 459.029L-168.363 452.492C96.5202 516.993 163.132 394.125 230.264 270.222C274.474 188.635 318.902 106.614 419.146 75.5921C538.443 38.6457 661.999 75.1197 782.344 110.628C819.965 121.734 857.278 132.748 894.086 141.399C1028.43 172.936 1155.27 172.267 1262.54 25.6971L1264.87 32.7355Z" fill="white"/>
</mask>
<g mask="url(#mask10_587_9751)">
<path d="M1193.33 -183.149L-223.426 286.327L-119.102 601.148L1297.66 131.673L1193.33 -183.149Z" fill="url(#paint10_linear_587_9751)"/>
</g>
<mask id="mask11_587_9751" style="mask-type:luminance" maskUnits="userSpaceOnUse" x="-172" y="11" width="1433" height="457">
<path d="M1260.22 18.684C1122.62 204.101 950.841 156.895 773.245 108.084C654.422 75.4068 532.971 42.0156 418.065 78.4524C322.47 108.74 278.113 187.957 233.958 266.775C164.381 391.015 95.2734 514.321 -169.085 450.313L-171.26 443.75C91.6119 508.64 159.816 386.968 228.505 264.328C273.272 184.419 318.239 104.11 416.347 73.0172C533.14 35.983 655.541 69.6429 775.274 102.547C951.352 150.971 1121.64 197.699 1257.79 11.3701L1260.22 18.684Z" fill="white"/>
</mask>
<g mask="url(#mask11_587_9751)">
<path d="M1192.52 -185.603L-224.239 283.873L-114.794 614.148L1301.96 144.673L1192.52 -185.603Z" fill="url(#paint11_linear_587_9751)"/>
</g>
<mask id="mask12_587_9751" style="mask-type:luminance" maskUnits="userSpaceOnUse" x="-175" y="-3" width="1431" height="463">
<path d="M1255.51 4.48193C1118.29 189.833 944.628 145.61 766.274 100.136C648.098 69.9968 527.803 39.3362 415.366 75.8441C321.848 106.194 276.986 183.716 232.325 260.922C161.14 383.916 90.4566 506.077 -171.94 441.696L-174.132 435.084C86.8369 500.354 156.666 379.811 226.897 258.384C272.186 180.137 317.668 101.547 413.598 70.4255C527.888 33.3034 649.101 64.216 768.187 94.5824C945.089 139.703 1117.31 183.54 1253.1 -2.78184L1255.51 4.48193Z" fill="white"/>
</mask>
<g mask="url(#mask12_587_9751)">
<path d="M1191.7 -188.083L-225.061 281.393L-119.476 600.021L1297.28 130.546L1191.7 -188.083Z" fill="url(#paint12_linear_587_9751)"/>
</g>
<mask id="mask13_587_9751" style="mask-type:luminance" maskUnits="userSpaceOnUse" x="-177" y="-17" width="1428" height="469">
<path d="M1250.8 -9.72003C1113.92 175.657 938.398 134.443 759.287 92.3053C641.799 64.6619 522.717 36.657 412.709 73.1942C321.31 103.565 275.976 179.409 230.825 254.97C158.04 376.743 85.6816 497.791 -174.804 433.055L-176.995 426.442C82.1369 492.127 153.583 372.605 225.456 252.357C271.217 175.787 317.155 98.9094 410.941 67.7757C522.77 30.6075 642.735 58.8477 761.1 86.7012C938.8 128.528 1112.94 169.422 1248.4 -16.9587L1250.8 -9.72003Z" fill="white"/>
</mask>
<g mask="url(#mask13_587_9751)">
<path d="M1190.82 -190.738L-225.941 278.737L-124.14 585.944L1292.62 116.469L1190.82 -190.738Z" fill="url(#paint13_linear_587_9751)"/>
</g>
<mask id="mask14_587_9751" style="mask-type:luminance" maskUnits="userSpaceOnUse" x="-180" y="-32" width="1427" height="475">
<path d="M1246.1 -23.8967C1109.54 161.597 932.134 123.426 752.317 84.6081C635.55 59.3942 517.74 33.9699 410.143 70.5698C320.848 100.91 275.099 175.085 229.492 249.018C155.098 369.629 81.0232 489.605 -177.634 424.514L-179.825 417.901C77.5786 483.992 150.7 365.499 224.173 246.389C270.374 171.481 316.742 96.3222 408.309 65.2012C517.684 28.012 636.361 53.6214 753.996 79.0205C932.461 117.536 1108.52 155.487 1243.7 -31.077L1246.08 -23.8884L1246.1 -23.8967Z" fill="white"/>
</mask>
<g mask="url(#mask14_587_9751)">
<path d="M1189.52 -194.645L-227.235 274.83L-128.78 571.943L1287.98 102.468L1189.52 -194.645Z" fill="url(#paint14_linear_587_9751)"/>
</g>
<mask id="mask15_587_9751" style="mask-type:luminance" maskUnits="userSpaceOnUse" x="-183" y="-46" width="1425" height="481">
<path d="M1241.41 -38.0737C1105.1 147.613 925.812 112.484 745.321 77.0024C629.326 54.2013 512.83 31.3159 407.628 67.9284C320.443 98.2644 274.322 170.728 228.326 243.067C152.307 362.548 76.5231 481.562 -180.423 416.098L-182.631 409.435C73.087 475.89 147.959 358.318 223.049 240.312C269.656 167.048 316.38 93.6345 405.76 62.5431C512.682 25.3328 630.07 48.395 746.925 71.3561C926.106 106.577 1104.09 141.469 1239.03 -45.3458L1241.43 -38.082L1241.41 -38.0737Z" fill="white"/>
</mask>
<g mask="url(#mask15_587_9751)">
<path d="M1188.25 -198.503L-228.514 270.973L-133.387 558.042L1283.37 88.5663L1188.25 -198.503Z" fill="url(#paint15_linear_587_9751)"/>
</g>
<mask id="mask16_587_9751" style="mask-type:luminance" maskUnits="userSpaceOnUse" x="-186" y="-60" width="1423" height="487">
<path d="M1236.73 -52.2004C1100.66 133.795 919.497 101.734 738.358 69.5805C623.194 49.1173 508.029 28.654 405.196 65.2874C320.156 95.5521 273.704 166.346 227.335 237.057C149.666 355.417 72.1314 473.593 -183.195 407.732L-185.403 401.069C68.7537 467.93 145.377 351.196 222.1 234.261C269.063 162.658 316.109 90.9723 403.261 59.952C507.789 22.7292 623.805 43.3274 739.82 63.9256C919.691 95.8596 1099.59 127.702 1234.29 -59.4809L1236.7 -52.1921L1236.73 -52.2004Z" fill="white"/>
</mask>
<g mask="url(#mask16_587_9751)">
<path d="M1186.98 -202.335L-229.783 267.141L-137.96 544.241L1278.8 74.7653L1186.98 -202.335Z" fill="url(#paint16_linear_587_9751)"/>
</g>
<mask id="mask17_587_9751" style="mask-type:luminance" maskUnits="userSpaceOnUse" x="-189" y="-74" width="1422" height="493">
<path d="M1232.04 -66.3522C1096.15 120.027 913.125 91.0584 731.387 62.2168C617.078 44.0832 503.294 26.0256 402.814 62.6297C319.894 92.8314 273.203 161.898 226.47 231.006C147.192 348.287 67.8316 465.65 -185.951 399.416L-188.159 392.754C64.5205 460.021 142.953 344.049 221.293 228.135C268.603 158.168 315.872 88.2433 400.821 57.2859C502.937 20.0838 617.572 38.2764 732.732 56.5451C913.243 85.2093 1095.08 113.934 1229.58 -73.6828L1232.01 -66.3439L1232.04 -66.3522Z" fill="white"/>
</mask>
<g mask="url(#mask17_587_9751)">
<path d="M1185.71 -206.167L-231.053 263.308L-141.072 534.848L1275.69 65.3724L1185.71 -206.167Z" fill="url(#paint17_linear_587_9751)"/>
</g>
<mask id="mask18_587_9751" style="mask-type:luminance" maskUnits="userSpaceOnUse" x="-191" y="-88" width="1419" height="499">
<path d="M1227.36 -80.4791C1091.65 106.343 906.718 80.5332 724.441 55.0117C611.012 39.1159 498.642 23.3971 400.508 59.947C319.741 90.019 272.827 157.408 225.838 224.905C144.894 341.181 63.6566 457.749 -188.682 391.175L-190.898 384.488C60.3872 452.161 140.687 336.877 220.67 221.976C268.244 153.645 315.727 85.4559 398.473 54.6448C498.236 17.472 611.423 33.309 725.669 49.323C906.803 74.6673 1090.59 100.3 1224.92 -87.818L1227.36 -80.4791Z" fill="white"/>
</mask>
<g mask="url(#mask18_587_9751)">
<path d="M1184.46 -209.924L-232.298 259.551L-143.828 526.532L1272.93 57.0563L1184.46 -209.924Z" fill="url(#paint18_linear_587_9751)"/>
</g>
<mask id="mask19_587_9751" style="mask-type:luminance" maskUnits="userSpaceOnUse" x="-194" y="-102" width="1417" height="505">
<path d="M1222.66 -94.6559C1087.09 92.7589 900.295 70.1249 717.503 47.9151C605.029 34.2322 494.099 20.7607 398.243 57.3062C319.629 87.2485 272.568 152.935 225.348 218.813C142.737 334.085 59.615 449.999 -191.387 383.01L-193.612 376.297C56.3791 444.344 138.597 329.73 220.263 215.8C268.044 149.097 315.656 82.6438 396.166 51.9622C493.584 14.8437 605.323 28.4085 718.606 42.1846C900.305 64.2839 1086.02 86.7492 1220.23 -101.97L1222.66 -94.6559Z" fill="white"/>
</mask>
<g mask="url(#mask19_587_9751)">
<path d="M1183.22 -213.681L-233.543 255.794L-146.559 518.291L1270.2 48.8158L1183.22 -213.681Z" fill="url(#paint19_linear_587_9751)"/>
</g>
<mask id="mask20_587_9751" style="mask-type:luminance" maskUnits="userSpaceOnUse" x="-152" y="22" width="1416" height="489">
<path d="M1263.53 28.6777C1031.64 470.756 821.58 388.336 583.508 294.852C442.871 239.632 292.42 180.548 122.044 224.997C-17.9626 261.523 -70.9432 362.362 -124.024 463.401C-132.288 479.149 -140.585 494.879 -149.173 510.401L-151.14 504.465C-143.389 490.36 -135.862 476.08 -128.369 461.783C-74.7769 359.768 -21.2689 257.921 121.016 220.807C293.079 175.91 444.356 235.304 585.727 290.809C822.231 383.673 1030.84 465.49 1261.5 22.5661L1263.53 28.6777Z" fill="white"/>
</mask>
<g mask="url(#mask20_587_9751)">
<path d="M1204.87 -148.333L-211.888 321.143L-44.1694 827.277L1372.59 357.801L1204.87 -148.333Z" fill="url(#paint20_linear_587_9751)"/>
</g>
<mask id="mask21_587_9751" style="mask-type:luminance" maskUnits="userSpaceOnUse" x="-126" y="-263" width="1295" height="852">
<path d="M1168.71 -257.464C1109.08 -255.191 1047.99 -246.705 985.152 -230.135C748.941 -167.845 657.713 -2.65634 566.31 162.841C445.977 380.789 325.317 599.263 -123.544 588.332L-125.137 583.523C321.335 595.134 441.1 378.319 560.529 162.005C652.652 -4.75971 744.591 -171.241 984.325 -234.476C1046.93 -250.995 1107.83 -259.558 1167.2 -262.023L1168.71 -257.464Z" fill="white"/>
</mask>
<g mask="url(#mask21_587_9751)">
<path d="M1152.49 -306.407L-264.445 163.126L-75.8684 732.205L1341.07 262.671L1152.49 -306.407Z" fill="url(#paint21_linear_587_9751)"/>
</g>
</g>
</g>
<defs>
<linearGradient id="paint0_linear_587_9751" x1="423.027" y1="-88.2006" x2="1135.99" y2="1777.5" gradientUnits="userSpaceOnUse">
<stop stop-color="#808080"/>
<stop offset="1" stop-color="white"/>
</linearGradient>
<linearGradient id="paint1_linear_587_9751" x1="658.743" y1="-402.428" x2="425.13" y2="1199.32" gradientUnits="userSpaceOnUse">
<stop stop-color="#CCCCCC"/>
<stop offset="1" stop-color="white"/>
</linearGradient>
<linearGradient id="paint2_linear_587_9751" x1="646.061" y1="-396.229" x2="436.499" y2="1170.15" gradientUnits="userSpaceOnUse">
<stop stop-color="#CCCCCC"/>
<stop offset="1" stop-color="white"/>
</linearGradient>
<linearGradient id="paint3_linear_587_9751" x1="680.983" y1="-404.459" x2="466.704" y2="723.023" gradientUnits="userSpaceOnUse">
<stop stop-color="#CCCCCC"/>
<stop offset="1" stop-color="white"/>
</linearGradient>
<linearGradient id="paint4_linear_587_9751" x1="677.077" y1="-405.202" x2="462.798" y2="722.28" gradientUnits="userSpaceOnUse">
<stop stop-color="#CCCCCC"/>
<stop offset="1" stop-color="white"/>
</linearGradient>
<linearGradient id="paint5_linear_587_9751" x1="673.215" y1="-405.936" x2="458.937" y2="721.54" gradientUnits="userSpaceOnUse">
<stop stop-color="#CCCCCC"/>
<stop offset="1" stop-color="white"/>
</linearGradient>
<linearGradient id="paint6_linear_587_9751" x1="669.394" y1="-406.662" x2="455.117" y2="720.808" gradientUnits="userSpaceOnUse">
<stop stop-color="#CCCCCC"/>
<stop offset="1" stop-color="white"/>
</linearGradient>
<linearGradient id="paint7_linear_587_9751" x1="665.624" y1="-407.378" x2="451.347" y2="720.094" gradientUnits="userSpaceOnUse">
<stop stop-color="#CCCCCC"/>
<stop offset="1" stop-color="white"/>
</linearGradient>
<linearGradient id="paint8_linear_587_9751" x1="661.909" y1="-408.085" x2="447.632" y2="719.384" gradientUnits="userSpaceOnUse">
<stop stop-color="#CCCCCC"/>
<stop offset="1" stop-color="white"/>
</linearGradient>
<linearGradient id="paint9_linear_587_9751" x1="658.254" y1="-408.78" x2="443.977" y2="718.69" gradientUnits="userSpaceOnUse">
<stop stop-color="#FFCBCB"/>
<stop offset="1" stop-color="white"/>
</linearGradient>
<linearGradient id="paint10_linear_587_9751" x1="654.661" y1="-409.463" x2="440.383" y2="718.012" gradientUnits="userSpaceOnUse">
<stop stop-color="#CCCCCC"/>
<stop offset="1" stop-color="white"/>
</linearGradient>
<linearGradient id="paint11_linear_587_9751" x1="657.31" y1="-408.96" x2="443.033" y2="718.513" gradientUnits="userSpaceOnUse">
<stop stop-color="#CCCCCC"/>
<stop offset="1" stop-color="white"/>
</linearGradient>
<linearGradient id="paint12_linear_587_9751" x1="653.128" y1="-409.755" x2="438.849" y2="717.721" gradientUnits="userSpaceOnUse">
<stop stop-color="#CCCCCC"/>
<stop offset="1" stop-color="white"/>
</linearGradient>
<linearGradient id="paint13_linear_587_9751" x1="648.919" y1="-410.555" x2="434.641" y2="716.918" gradientUnits="userSpaceOnUse">
<stop stop-color="#CCCCCC"/>
<stop offset="1" stop-color="white"/>
</linearGradient>
<linearGradient id="paint14_linear_587_9751" x1="644.416" y1="-411.41" x2="430.139" y2="716.06" gradientUnits="userSpaceOnUse">
<stop stop-color="#CCCCCC"/>
<stop offset="1" stop-color="white"/>
</linearGradient>
<linearGradient id="paint15_linear_587_9751" x1="639.942" y1="-412.261" x2="425.665" y2="715.208" gradientUnits="userSpaceOnUse">
<stop stop-color="#CCCCCC"/>
<stop offset="1" stop-color="white"/>
</linearGradient>
<linearGradient id="paint16_linear_587_9751" x1="635.502" y1="-413.105" x2="421.226" y2="714.36" gradientUnits="userSpaceOnUse">
<stop stop-color="#CCCCCC"/>
<stop offset="1" stop-color="white"/>
</linearGradient>
<linearGradient id="paint17_linear_587_9751" x1="632.187" y1="-413.736" x2="417.91" y2="713.732" gradientUnits="userSpaceOnUse">
<stop stop-color="#CCCCCC"/>
<stop offset="1" stop-color="white"/>
</linearGradient>
<linearGradient id="paint18_linear_587_9751" x1="629.138" y1="-414.315" x2="414.861" y2="713.152" gradientUnits="userSpaceOnUse">
<stop stop-color="#CCCCCC"/>
<stop offset="1" stop-color="white"/>
</linearGradient>
<linearGradient id="paint19_linear_587_9751" x1="626.128" y1="-414.888" x2="411.852" y2="712.576" gradientUnits="userSpaceOnUse">
<stop stop-color="#CCCCCC"/>
<stop offset="1" stop-color="white"/>
</linearGradient>
<linearGradient id="paint20_linear_587_9751" x1="603.913" y1="43.9009" x2="559.033" y2="606.768" gradientUnits="userSpaceOnUse">
<stop stop-color="#11418B"/>
<stop offset="1" stop-color="white"/>
</linearGradient>
<linearGradient id="paint21_linear_587_9751" x1="411.559" y1="-125.598" x2="1200.67" y2="1981.76" gradientUnits="userSpaceOnUse">
<stop stop-color="#ADC0DD"/>
<stop offset="1" stop-color="white"/>
</linearGradient>
</defs>
</svg>
