<svg width="1493" height="552" viewBox="0 0 1493 552" fill="none" xmlns="http://www.w3.org/2000/svg">
<g opacity="0.2">
<mask id="mask0_91_542" style="mask-type:luminance" maskUnits="userSpaceOnUse" x="0" y="38" width="1493" height="439">
<path d="M1492.7 322.3C1352.27 191.157 1199.73 59.0909 989.375 43.7074C805.247 30.2501 700.624 143.977 595.789 257.942C457.733 408.004 319.36 558.409 0.184814 423.863V419.377C317.487 553.844 454.83 404.574 591.831 255.62C697.484 140.785 802.925 26.1602 989.797 39.8285C1200.23 55.2385 1352.67 185.748 1492.68 316.284V322.3H1492.7Z" fill="white"/>
</mask>
<g mask="url(#mask0_91_542)">
<path d="M1492.7 26.1602H0.184814V558.409H1492.7V26.1602Z" fill="url(#paint0_linear_91_542)"/>
</g>
<mask id="mask1_91_542" style="mask-type:luminance" maskUnits="userSpaceOnUse" x="0" y="147" width="1493" height="391">
<path d="M1492.7 477.56C1362.56 567.46 1265.01 545.559 1175.09 482.336C1129.28 450.144 1085.61 407.239 1040.57 363.015C943.145 267.336 839.339 165.377 695.32 154.136C576.474 144.848 510.823 223.771 445.278 302.615C350.022 417.16 254.871 531.495 0.158447 383.544V376.789C252.628 524.819 346.407 412.094 440.317 299.158C506.918 219.074 573.597 138.911 695.821 148.437C842.242 159.862 946.892 262.639 1045.1 359.109C1089.96 403.175 1133.47 445.896 1178.86 477.797C1267.31 539.965 1363.49 561.021 1492.68 470.251V477.56H1492.7Z" fill="white"/>
</mask>
<g mask="url(#mask1_91_542)">
<path d="M1492.7 138.885H0.184814V567.46H1492.7V138.885Z" fill="url(#paint1_linear_91_542)"/>
</g>
<mask id="mask2_91_542" style="mask-type:luminance" maskUnits="userSpaceOnUse" x="0" y="144" width="1493" height="379">
<path d="M1492.7 462.651C1361.4 553.448 1261.98 530.281 1169.62 466.319C1124.63 435.156 1081.44 394.283 1037 352.275C938.818 259.42 834.616 160.839 692.945 150.68C575.867 142.262 509.979 219.417 444.223 296.414C348.069 408.98 252.179 521.177 0.158447 373.754V366.973C249.989 514.528 344.507 403.914 439.315 292.931C506.1 214.747 573.043 136.378 693.42 145.006C837.413 155.35 942.485 254.723 1041.46 348.343C1085.69 390.167 1128.7 430.855 1173.34 461.78C1264.22 524.713 1362.27 547.036 1492.65 455.342V462.651H1492.7Z" fill="white"/>
</mask>
<g mask="url(#mask2_91_542)">
<path d="M1492.7 136.325H0.184814V553.448H1492.7V136.325Z" fill="url(#paint2_linear_91_542)"/>
</g>
<mask id="mask3_91_542" style="mask-type:luminance" maskUnits="userSpaceOnUse" x="0" y="140" width="1493" height="369">
<path d="M1492.7 447.716C1360.06 539.569 1258.6 515.029 1163.69 450.25C1119.65 420.195 1077.06 381.406 1033.39 341.641C934.49 251.557 829.946 156.353 690.676 147.249C575.392 139.703 509.266 215.09 443.326 290.24C346.275 400.827 249.62 510.966 0.184814 363.991V357.183C247.456 504.29 342.765 395.708 438.47 286.625C505.414 210.314 572.568 133.766 691.098 141.523C832.69 150.785 938.079 246.781 1037.79 337.578C1081.28 377.158 1123.66 415.762 1167.43 445.632C1260.9 509.409 1360.98 533.078 1492.7 440.328V447.716Z" fill="white"/>
</mask>
<g mask="url(#mask3_91_542)">
<path d="M1492.7 133.766H0.184814V539.543H1492.7V133.766Z" fill="url(#paint3_linear_91_542)"/>
</g>
<mask id="mask4_91_542" style="mask-type:luminance" maskUnits="userSpaceOnUse" x="0" y="137" width="1493" height="357">
<path d="M1492.7 432.755C1358.53 525.769 1254.88 499.751 1157.25 434.101C1114.21 405.181 1072.44 368.556 1029.72 331.087C930.136 243.799 825.328 151.893 688.433 143.793C574.943 137.064 508.607 210.683 442.508 284.012C344.507 392.726 247.034 500.833 0.184814 354.333V347.499C244.949 494.157 341.076 387.581 437.705 280.397C504.807 205.934 572.172 131.206 688.829 138.093C827.993 146.326 933.672 238.97 1034.02 326.97C1076.58 364.281 1118.2 400.774 1160.92 429.509C1257.12 494.184 1359.42 519.383 1492.68 425.42V432.755H1492.7Z" fill="white"/>
</mask>
<g mask="url(#mask4_91_542)">
<path d="M1492.7 131.206H0.184814V525.769H1492.7V131.206Z" fill="url(#paint4_linear_91_542)"/>
</g>
<mask id="mask5_91_542" style="mask-type:luminance" maskUnits="userSpaceOnUse" x="0" y="134" width="1493" height="345">
<path d="M1492.7 417.794C1356.79 512.153 1250.74 484.473 1150.18 417.873C1108.38 390.193 1067.59 355.758 1025.97 320.637C925.809 236.094 820.789 147.487 686.269 140.389C574.626 134.505 508.079 206.33 441.821 277.838C342.897 384.652 244.553 490.753 0.184814 344.702V337.894C242.522 484.157 339.493 379.506 437.045 274.144C504.306 201.554 571.856 128.647 686.586 134.689C823.375 141.893 929.213 231.239 1030.17 316.442C1071.62 351.431 1112.28 385.734 1153.82 413.255C1252.95 478.906 1357.66 505.794 1492.68 410.458V417.794H1492.7Z" fill="white"/>
</mask>
<g mask="url(#mask5_91_542)">
<path d="M1492.7 128.647H0.184814V512.179H1492.7V128.647Z" fill="url(#paint5_linear_91_542)"/>
</g>
<mask id="mask6_91_542" style="mask-type:luminance" maskUnits="userSpaceOnUse" x="0" y="131" width="1493" height="334">
<path d="M1492.7 402.859C1354.81 498.722 1246.17 469.195 1142.5 401.539C1102.02 375.126 1062.44 342.987 1022.15 310.241C921.455 228.442 816.304 143.054 684.132 136.959C574.336 131.866 507.63 201.923 441.241 271.663C341.34 376.604 242.099 480.779 0.158447 335.15V328.316C240.147 474.182 338.016 371.432 436.544 267.943C503.91 197.173 571.618 126.061 684.448 131.312C818.837 137.513 924.806 223.587 1026.32 306.045C1066.5 338.686 1106 370.772 1146.14 396.948C1248.41 463.68 1355.73 492.389 1492.73 395.523V402.859H1492.7Z" fill="white"/>
</mask>
<g mask="url(#mask6_91_542)">
<path d="M1492.7 126.061H0.184814V498.722H1492.7V126.061Z" fill="url(#paint6_linear_91_542)"/>
</g>
<mask id="mask7_91_542" style="mask-type:luminance" maskUnits="userSpaceOnUse" x="0" y="127" width="1493" height="323">
<path d="M1492.7 387.95C1352.59 485.529 1241.11 453.864 1134.08 385.1C1095.27 360.138 1057.08 330.321 1018.29 300.003C917.128 220.948 811.923 138.753 682.074 133.581C574.125 129.28 507.287 197.569 440.819 265.515C339.915 368.635 239.725 470.91 0.184814 325.677V318.817C237.825 464.314 336.643 363.41 436.175 261.715C503.646 192.767 571.46 123.475 682.338 127.881C814.325 133.106 920.347 215.987 1022.33 295.675C1060.99 325.862 1099.04 355.626 1137.64 380.43C1243.3 448.323 1353.46 479.143 1492.68 380.535V387.95H1492.7Z" fill="white"/>
</mask>
<g mask="url(#mask7_91_542)">
<path d="M1492.7 123.475H0.184814V485.529H1492.7V123.475Z" fill="url(#paint7_linear_91_542)"/>
</g>
<mask id="mask8_91_542" style="mask-type:luminance" maskUnits="userSpaceOnUse" x="0" y="124" width="1493" height="312">
<path d="M1492.7 373.042C1350.06 472.546 1235.48 438.507 1124.82 368.45C1087.82 345.019 1051.33 317.603 1014.39 289.844C912.774 213.507 807.596 134.425 680.095 130.203C574.046 126.668 507.103 193.189 440.529 259.367C338.596 360.666 237.455 461.174 0.184814 316.283V309.396C235.582 454.551 335.377 355.442 435.937 255.515C503.488 188.386 571.381 120.915 680.306 124.53C809.918 128.805 915.94 208.493 1018.35 285.464C1055.21 313.17 1091.6 340.507 1128.35 363.78C1237.65 432.966 1350.95 466.187 1492.7 365.6V373.042Z" fill="white"/>
</mask>
<g mask="url(#mask8_91_542)">
<path d="M1492.7 120.915H0.184814V472.573H1492.7V120.915Z" fill="url(#paint8_linear_91_542)"/>
</g>
<mask id="mask9_91_542" style="mask-type:luminance" maskUnits="userSpaceOnUse" x="0" y="121" width="1493" height="300">
<path d="M1492.7 358.133C1347.18 459.854 1229.15 423.045 1114.53 351.615C1079.8 329.978 1045.29 305.016 1010.41 279.817C908.446 206.145 803.321 130.177 678.168 126.879C574.02 124.108 507.023 188.861 440.397 253.272C337.409 352.803 235.239 451.49 0.184814 306.969V300.108C233.445 444.972 334.242 347.552 435.832 249.366C503.435 184.033 571.381 118.356 678.327 121.179C805.564 124.53 911.507 201.105 1014.28 275.357C1048.98 300.425 1083.31 325.255 1118.06 346.892C1231.32 417.503 1348.08 453.521 1492.7 350.692V358.133Z" fill="white"/>
</mask>
<g mask="url(#mask9_91_542)">
<path d="M1492.7 118.329H0.184814V459.828H1492.7V118.329Z" fill="url(#paint9_linear_91_542)"/>
</g>
<mask id="mask10_91_542" style="mask-type:luminance" maskUnits="userSpaceOnUse" x="0" y="117" width="1493" height="290">
<path d="M1492.7 343.145C1343.88 447.373 1222 407.397 1103.08 334.385C1070.83 314.595 1038.74 292.298 1006.39 269.843C904.119 198.809 799.126 125.902 676.295 123.501C574.072 121.469 507.05 184.455 440.37 247.124C336.327 344.887 233.075 441.858 0.184814 297.654V290.767C231.334 435.315 333.213 339.636 435.911 243.139C503.54 179.6 571.513 115.717 676.427 117.802C801.289 120.256 907.101 193.743 1010.17 265.304C1042.39 287.68 1074.34 309.872 1106.56 329.662C1224.17 401.856 1344.78 441.12 1492.7 335.731V343.145Z" fill="white"/>
</mask>
<g mask="url(#mask10_91_542)">
<path d="M1492.7 115.717H0.184814V447.373H1492.7V115.717Z" fill="url(#paint10_linear_91_542)"/>
</g>
<mask id="mask11_91_542" style="mask-type:luminance" maskUnits="userSpaceOnUse" x="0" y="114" width="1493" height="279">
<path d="M1492.7 328.342C1303.77 461.068 1155.56 362.223 1002.33 260.027C899.818 191.632 795.036 121.733 674.501 120.176C574.231 118.857 507.208 180.101 440.502 241.028C335.377 337.076 230.991 432.386 0.184814 288.472V281.558C229.302 425.842 332.316 331.799 436.095 236.991C503.725 175.219 571.671 113.131 674.58 114.477C797.094 116.06 902.694 186.513 1006 255.409C1157.91 356.761 1304.86 454.682 1492.7 320.637V328.342Z" fill="white"/>
</mask>
<g mask="url(#mask11_91_542)">
<path d="M1492.7 113.131H0.184814V461.068H1492.7V113.131Z" fill="url(#paint11_linear_91_542)"/>
</g>
<mask id="mask12_91_542" style="mask-type:luminance" maskUnits="userSpaceOnUse" x="0" y="111" width="1493" height="268">
<path d="M1492.7 313.381C1304.14 446.16 1153.21 349.557 998.214 250.29C895.517 184.508 790.972 117.564 672.759 116.852C574.442 116.245 507.472 175.721 440.792 234.959C334.533 329.319 229.012 423.045 0.184814 279.395V272.429C227.376 416.474 331.577 324.015 436.439 230.843C504.042 170.813 571.935 110.519 672.786 111.152C792.951 111.865 898.287 179.336 1001.78 245.62C1155.51 344.095 1305.2 439.879 1492.7 305.729V313.381Z" fill="white"/>
</mask>
<g mask="url(#mask12_91_542)">
<path d="M1492.7 110.519H0.184814V446.186H1492.7V110.519Z" fill="url(#paint12_linear_91_542)"/>
</g>
<mask id="mask13_91_542" style="mask-type:luminance" maskUnits="userSpaceOnUse" x="0" y="107" width="1493" height="258">
<path d="M1492.7 298.42C1304.46 431.33 1150.81 336.997 994.045 240.659C891.216 177.462 786.988 113.421 671.07 113.501C574.758 113.58 507.868 171.314 441.241 228.837C333.846 321.534 227.085 413.677 0.184814 270.291V263.325C225.502 407.186 330.918 316.204 436.966 224.668C504.49 166.38 572.278 107.854 671.097 107.801C788.94 107.695 893.934 172.238 997.528 235.909C1153.05 331.509 1305.49 425.103 1492.7 290.794V298.42Z" fill="white"/>
</mask>
<g mask="url(#mask13_91_542)">
<path d="M1492.7 107.722H0.184814V431.356H1492.7V107.722Z" fill="url(#paint13_linear_91_542)"/>
</g>
<mask id="mask14_91_542" style="mask-type:luminance" maskUnits="userSpaceOnUse" x="0" y="104" width="1493" height="247">
<path d="M1492.7 283.485C1304.72 416.606 1148.33 324.569 989.85 231.16C886.941 170.496 783.109 109.305 669.461 110.202C575.154 110.915 508.395 166.934 441.848 222.769C333.292 313.856 225.238 404.442 0.184814 261.293V254.327C223.734 398.03 330.416 308.552 437.626 218.599C505.044 162.026 572.7 105.268 669.408 104.529C784.93 103.632 889.527 165.272 993.201 226.384C1150.49 319.081 1305.67 410.485 1492.68 275.912V283.485H1492.7Z" fill="white"/>
</mask>
<g mask="url(#mask14_91_542)">
<path d="M1492.7 103.606H0.184814V416.606H1492.7V103.606Z" fill="url(#paint14_linear_91_542)"/>
</g>
<mask id="mask15_91_542" style="mask-type:luminance" maskUnits="userSpaceOnUse" x="0" y="101" width="1493" height="236">
<path d="M1492.7 268.55C1304.91 401.935 1145.77 312.194 985.602 221.739C882.666 163.609 779.283 105.241 667.904 106.904C575.603 108.276 509.029 162.554 442.613 216.752C332.87 306.256 223.497 395.391 0.184814 252.427V245.408C222.019 388.926 330.073 300.874 438.47 212.478C505.757 157.593 573.202 102.603 667.825 101.204C781.024 99.5156 885.2 158.332 988.9 216.884C1147.91 306.679 1305.89 395.787 1492.73 260.898V268.55H1492.7Z" fill="white"/>
</mask>
<g mask="url(#mask15_91_542)">
<path d="M1492.7 99.542H0.184814V401.962H1492.7V99.542Z" fill="url(#paint15_linear_91_542)"/>
</g>
<mask id="mask16_91_542" style="mask-type:luminance" maskUnits="userSpaceOnUse" x="0" y="97" width="1493" height="226">
<path d="M1492.7 253.668C1305.04 387.422 1143.16 300.003 981.327 212.504C878.445 156.854 775.562 101.204 666.426 103.632C576.183 105.611 509.82 158.2 443.563 210.736C332.606 298.657 221.834 386.446 0.184814 243.614V236.595C220.409 380.008 329.862 293.301 439.473 206.435C506.575 153.239 573.782 99.9905 666.268 97.9587C777.198 95.5048 880.846 151.55 984.493 207.596C1145.19 294.488 1305.94 381.301 1492.68 245.989V253.668H1492.7Z" fill="white"/>
</mask>
<g mask="url(#mask16_91_542)">
<path d="M1492.7 95.5049H0.184814V387.423H1492.7V95.5049Z" fill="url(#paint16_linear_91_542)"/>
</g>
<mask id="mask17_91_542" style="mask-type:luminance" maskUnits="userSpaceOnUse" x="0" y="94" width="1493" height="217">
<path d="M1492.7 238.759C1305.09 372.936 1140.47 287.865 977.026 203.321C874.223 150.152 771.894 97.2199 665.001 100.36C576.79 102.946 510.744 153.82 444.645 204.72C332.501 291.11 220.251 377.554 0.184814 234.854V227.835C218.879 371.168 329.809 285.754 440.634 200.366C507.551 148.833 574.415 97.3255 664.79 94.6604C773.425 91.4676 876.518 144.795 980.087 198.361C1142.42 282.35 1305.99 366.814 1492.68 231.028V238.759H1492.7Z" fill="white"/>
</mask>
<g mask="url(#mask17_91_542)">
<path d="M1492.7 91.4675H0.184814V377.527H1492.7V91.4675Z" fill="url(#paint17_linear_91_542)"/>
</g>
<mask id="mask18_91_542" style="mask-type:luminance" maskUnits="userSpaceOnUse" x="0" y="91" width="1493" height="212">
<path d="M1492.7 223.877C1305.12 358.529 1137.7 275.859 972.698 194.297C870.027 143.529 768.306 93.2619 663.656 97.088C577.529 100.228 511.799 149.439 445.964 198.73C332.554 283.643 218.773 368.741 0.184814 226.172V219.127C217.428 362.408 329.915 278.234 441.98 194.324C508.633 144.426 575.154 94.634 663.392 91.4148C769.784 87.5096 872.244 138.146 975.654 189.284C1139.62 270.318 1306.02 352.46 1492.7 216.145V223.877Z" fill="white"/>
</mask>
<g mask="url(#mask18_91_542)">
<path d="M1492.7 87.5095H0.184814V368.767H1492.7V87.5095Z" fill="url(#paint18_linear_91_542)"/>
</g>
<mask id="mask19_91_542" style="mask-type:luminance" maskUnits="userSpaceOnUse" x="0" y="87" width="1493" height="208">
<path d="M1492.7 208.942C1305.07 344.201 1134.87 263.958 968.345 185.378C865.884 137.011 764.823 89.3302 662.336 93.8688C578.294 97.5629 512.96 145.112 447.415 192.793C332.738 276.228 217.375 360.112 0.184814 217.57V210.499C216.082 353.726 330.179 270.793 443.537 188.334C509.873 140.046 575.972 91.9425 662.046 88.1428C766.195 83.5515 867.995 131.576 971.194 180.286C1136.72 258.417 1305.94 338.158 1492.7 201.237V208.942Z" fill="white"/>
</mask>
<g mask="url(#mask19_91_542)">
<path d="M1492.7 83.5515H0.184814V360.086H1492.7V83.5515Z" fill="url(#paint19_linear_91_542)"/>
</g>
<mask id="mask20_91_542" style="mask-type:luminance" maskUnits="userSpaceOnUse" x="0" y="161" width="1493" height="391">
<path d="M1492.7 338.871C1133.53 685.567 960.059 541.258 763.477 377.633C647.349 280.978 523.119 177.568 347.409 166.169C203.02 156.801 121.01 235.856 38.8415 315.07C26.0439 327.419 13.2199 339.741 0.184814 351.774V345.52C11.9797 334.57 23.6163 323.382 35.2265 312.167C118.187 232.189 201.015 152.342 347.752 161.868C525.204 173.372 650.119 277.336 766.855 374.493C962.144 537.036 1134.42 680.316 1492.7 332.432V338.871Z" fill="white"/>
</mask>
<g mask="url(#mask20_91_542)">
<path d="M1492.7 152.395H0.184814V685.594H1492.7V152.395Z" fill="url(#paint20_linear_91_542)"/>
</g>
<mask id="mask21_91_542" style="mask-type:luminance" maskUnits="userSpaceOnUse" x="0" y="0" width="1493" height="493">
<path d="M1492.7 37.4274C1435.39 20.8301 1374.73 9.66844 1309.87 5.63125C1066.05 -9.54119 927.498 118.567 788.676 246.913C605.895 415.947 422.638 585.377 0 433.811V428.744C420.158 580.205 602.042 412.068 783.452 244.3C923.355 114.978 1062.99 -14.1325 1310.45 1.25103C1375.07 5.26183 1435.58 16.2915 1492.7 32.625V37.4274Z" fill="white"/>
</mask>
<g mask="url(#mask21_91_542)">
<path d="M1492.7 -14.1326H0V585.377H1492.7V-14.1326Z" fill="url(#paint21_linear_91_542)"/>
</g>
</g>
<defs>
<linearGradient id="paint0_linear_91_542" x1="731.632" y1="-36.4563" x2="821.542" y2="1958.81" gradientUnits="userSpaceOnUse">
<stop stop-color="#808080"/>
<stop offset="1" stop-color="white"/>
</linearGradient>
<linearGradient id="paint1_linear_91_542" x1="1054.22" y1="-260.589" x2="328.635" y2="1186.37" gradientUnits="userSpaceOnUse">
<stop stop-color="#CCCCCC"/>
<stop offset="1" stop-color="white"/>
</linearGradient>
<linearGradient id="paint2_linear_91_542" x1="1040.24" y1="-258.693" x2="348.604" y2="1162.26" gradientUnits="userSpaceOnUse">
<stop stop-color="#CCCCCC"/>
<stop offset="1" stop-color="white"/>
</linearGradient>
<linearGradient id="paint3_linear_91_542" x1="1075.97" y1="-255.521" x2="517.919" y2="747.328" gradientUnits="userSpaceOnUse">
<stop stop-color="#CCCCCC"/>
<stop offset="1" stop-color="white"/>
</linearGradient>
<linearGradient id="paint4_linear_91_542" x1="1072.5" y1="-257.454" x2="514.446" y2="745.394" gradientUnits="userSpaceOnUse">
<stop stop-color="#CCCCCC"/>
<stop offset="1" stop-color="white"/>
</linearGradient>
<linearGradient id="paint5_linear_91_542" x1="1069.06" y1="-259.366" x2="511.013" y2="743.478" gradientUnits="userSpaceOnUse">
<stop stop-color="#CCCCCC"/>
<stop offset="1" stop-color="white"/>
</linearGradient>
<linearGradient id="paint6_linear_91_542" x1="1065.67" y1="-261.257" x2="507.617" y2="741.581" gradientUnits="userSpaceOnUse">
<stop stop-color="#CCCCCC"/>
<stop offset="1" stop-color="white"/>
</linearGradient>
<linearGradient id="paint7_linear_91_542" x1="1062.31" y1="-263.123" x2="504.263" y2="739.717" gradientUnits="userSpaceOnUse">
<stop stop-color="#CCCCCC"/>
<stop offset="1" stop-color="white"/>
</linearGradient>
<linearGradient id="paint8_linear_91_542" x1="1059.01" y1="-264.962" x2="500.961" y2="737.875" gradientUnits="userSpaceOnUse">
<stop stop-color="#CCCCCC"/>
<stop offset="1" stop-color="white"/>
</linearGradient>
<linearGradient id="paint9_linear_91_542" x1="1055.76" y1="-266.772" x2="497.709" y2="736.067" gradientUnits="userSpaceOnUse">
<stop stop-color="#FFCBCB"/>
<stop offset="1" stop-color="white"/>
</linearGradient>
<linearGradient id="paint10_linear_91_542" x1="1052.56" y1="-268.55" x2="494.511" y2="734.292" gradientUnits="userSpaceOnUse">
<stop stop-color="#CCCCCC"/>
<stop offset="1" stop-color="white"/>
</linearGradient>
<linearGradient id="paint11_linear_91_542" x1="1054.92" y1="-267.239" x2="496.869" y2="735.601" gradientUnits="userSpaceOnUse">
<stop stop-color="#CCCCCC"/>
<stop offset="1" stop-color="white"/>
</linearGradient>
<linearGradient id="paint12_linear_91_542" x1="1051.2" y1="-269.31" x2="493.147" y2="733.534" gradientUnits="userSpaceOnUse">
<stop stop-color="#CCCCCC"/>
<stop offset="1" stop-color="white"/>
</linearGradient>
<linearGradient id="paint13_linear_91_542" x1="1047.45" y1="-271.393" x2="489.404" y2="731.448" gradientUnits="userSpaceOnUse">
<stop stop-color="#CCCCCC"/>
<stop offset="1" stop-color="white"/>
</linearGradient>
<linearGradient id="paint14_linear_91_542" x1="1043.45" y1="-273.621" x2="485.401" y2="729.217" gradientUnits="userSpaceOnUse">
<stop stop-color="#CCCCCC"/>
<stop offset="1" stop-color="white"/>
</linearGradient>
<linearGradient id="paint15_linear_91_542" x1="1039.47" y1="-275.836" x2="481.422" y2="727.001" gradientUnits="userSpaceOnUse">
<stop stop-color="#CCCCCC"/>
<stop offset="1" stop-color="white"/>
</linearGradient>
<linearGradient id="paint16_linear_91_542" x1="1035.52" y1="-278.034" x2="477.475" y2="724.8" gradientUnits="userSpaceOnUse">
<stop stop-color="#CCCCCC"/>
<stop offset="1" stop-color="white"/>
</linearGradient>
<linearGradient id="paint17_linear_91_542" x1="1032.57" y1="-279.676" x2="474.525" y2="723.161" gradientUnits="userSpaceOnUse">
<stop stop-color="#CCCCCC"/>
<stop offset="1" stop-color="white"/>
</linearGradient>
<linearGradient id="paint18_linear_91_542" x1="1029.86" y1="-281.185" x2="471.813" y2="721.651" gradientUnits="userSpaceOnUse">
<stop stop-color="#CCCCCC"/>
<stop offset="1" stop-color="white"/>
</linearGradient>
<linearGradient id="paint19_linear_91_542" x1="1027.18" y1="-282.675" x2="469.138" y2="720.158" gradientUnits="userSpaceOnUse">
<stop stop-color="#CCCCCC"/>
<stop offset="1" stop-color="white"/>
</linearGradient>
<linearGradient id="paint20_linear_91_542" x1="861.784" y1="145.838" x2="642.131" y2="666.017" gradientUnits="userSpaceOnUse">
<stop stop-color="#11418B"/>
<stop offset="1" stop-color="white"/>
</linearGradient>
<linearGradient id="paint21_linear_91_542" x1="732.509" y1="-75.5623" x2="818.688" y2="2173.04" gradientUnits="userSpaceOnUse">
<stop stop-color="#ADC0DD"/>
<stop offset="1" stop-color="white"/>
</linearGradient>
</defs>
</svg>
