<svg width="1280" height="752" viewBox="0 0 1280 752" fill="none" xmlns="http://www.w3.org/2000/svg">
<g opacity="0.6">
<g opacity="0.2">
<mask id="mask0_281_7153" style="mask-type:luminance" maskUnits="userSpaceOnUse" x="-169" y="104" width="1699" height="562">
<path d="M-168.198 382.626C2.82785 521.267 187.772 659.993 429.444 660.716C640.983 661.339 751.453 522.96 862.146 384.294C1007.92 201.705 1154.02 18.6988 1529.63 146.903L1529.99 152.031C1156.53 23.7664 1011.51 205.393 866.856 386.631C755.298 526.358 643.965 665.827 429.272 665.183C187.507 664.437 2.80906 527.482 -167.686 389.5L-168.168 382.624L-168.198 382.626Z" fill="white"/>
</mask>
<g mask="url(#mask0_281_7153)">
<path d="M-144.461 721.117L1561.51 601.483L1518.84 -6.88516L-187.124 112.749L-144.461 721.117Z" fill="url(#paint0_linear_281_7153)"/>
</g>
<mask id="mask1_281_7153" style="mask-type:luminance" maskUnits="userSpaceOnUse" x="-181" y="122" width="1715" height="396">
<path d="M-180.643 205.161C-39.0976 91.9729 74.1613 109.187 182.016 174.243C236.955 207.367 290.31 252.908 345.338 299.846C464.36 401.4 591.184 509.619 756.701 510.924C893.289 512.014 962.002 416.541 1030.6 321.168C1130.3 182.606 1229.89 44.2933 1532.89 192.987L1533.43 200.708C1232.99 51.7442 1134.84 188.107 1036.55 324.721C966.842 421.597 897.052 518.569 756.585 517.478C588.309 516.155 460.454 407.069 340.464 304.674C285.659 257.902 232.5 212.559 178.067 179.733C71.9856 115.765 -39.6372 99.4061 -180.027 213.514L-180.613 205.159L-180.643 205.161Z" fill="white"/>
</mask>
<g mask="url(#mask1_281_7153)">
<path d="M-153.496 592.272L1552.47 472.637L1518.12 -17.23L-187.849 102.404L-153.496 592.272Z" fill="url(#paint1_linear_281_7153)"/>
</g>
<mask id="mask2_281_7153" style="mask-type:luminance" maskUnits="userSpaceOnUse" x="-180" y="139" width="1715" height="383">
<path d="M-179.448 222.202C-36.6474 107.895 78.8542 126.407 189.543 192.113C243.464 224.126 296.113 267.383 350.271 311.836C469.941 410.101 596.947 514.428 759.693 514.684C894.19 514.921 963.316 421.45 1032.3 328.171C1133.19 191.799 1233.8 55.8704 1533.68 204.176L1534.22 211.927C1236.83 63.2953 1137.66 197.304 1038.19 331.759C968.124 426.478 897.888 521.42 759.605 521.207C594.19 520.926 466.125 415.764 345.489 316.688C291.588 272.428 239.165 229.368 185.654 197.599C76.7368 132.95 -37.1287 115.294 -178.802 230.552L-179.388 222.198L-179.448 222.202Z" fill="white"/>
</mask>
<g mask="url(#mask2_281_7153)">
<path d="M-153.291 595.197L1552.68 475.563L1519.24 -1.21477L-186.726 118.42L-153.291 595.197Z" fill="url(#paint2_linear_281_7153)"/>
</g>
<mask id="mask3_281_7153" style="mask-type:luminance" maskUnits="userSpaceOnUse" x="-179" y="150" width="1714" height="376">
<path d="M-178.251 239.273C-33.9968 123.652 83.9372 143.568 197.617 210.005C250.364 240.827 302.152 281.75 355.255 323.701C475.518 418.742 602.645 519.181 762.561 518.423C894.938 517.808 964.477 426.339 1033.82 335.157C1135.89 200.975 1237.54 67.3373 1534.43 215.338L1534.97 223.119C1240.55 74.7945 1140.31 206.545 1039.66 338.9C969.263 431.49 898.641 524.368 762.538 525.002C599.954 525.765 471.799 424.489 350.544 328.699C297.667 286.944 246.135 246.216 193.705 215.583C81.7639 150.177 -34.5322 131.145 -177.659 247.718L-178.251 239.273Z" fill="white"/>
</mask>
<g mask="url(#mask3_281_7153)">
<path d="M-153.086 598.123L1552.88 478.488L1520.36 14.6797L-185.612 134.314L-153.086 598.123Z" fill="url(#paint3_linear_281_7153)"/>
</g>
<mask id="mask4_281_7153" style="mask-type:luminance" maskUnits="userSpaceOnUse" x="-178" y="161" width="1714" height="368">
<path d="M-177.052 256.374C-31.1413 139.303 89.4144 160.733 206.271 227.947C257.781 257.553 308.46 296.068 360.293 335.471C481.116 427.26 608.28 523.908 765.402 522.194C895.662 520.788 965.584 431.323 1035.26 342.209C1138.56 210.092 1241.31 78.7117 1535.2 226.376L1535.75 234.188C1244.23 86.1753 1142.89 215.699 1041.04 345.956C970.308 436.448 899.298 527.262 765.407 528.741C605.68 530.486 477.461 433.063 355.707 340.521C304.068 301.286 253.579 262.909 202.446 233.489C87.2972 167.277 -31.6549 146.674 -176.434 264.756L-177.022 256.372L-177.052 256.374Z" fill="white"/>
</mask>
<g mask="url(#mask4_281_7153)">
<path d="M-152.881 601.048L1553.09 481.414L1521.46 30.4235L-184.507 150.058L-152.881 601.048Z" fill="url(#paint4_linear_281_7153)"/>
</g>
<mask id="mask5_281_7153" style="mask-type:luminance" maskUnits="userSpaceOnUse" x="-176" y="171" width="1713" height="362">
<path d="M-175.853 273.475C-28.0595 154.726 95.3744 177.864 215.655 245.929C265.647 274.217 315.036 310.306 365.414 347.115C486.68 435.72 613.821 528.581 768.148 525.912C896.229 523.689 966.536 436.258 1036.54 349.212C1141.05 219.192 1244.95 90.0342 1535.97 237.385L1536.52 245.166C1247.8 97.4115 1145.35 224.801 1042.29 353.051C971.232 441.414 899.865 530.162 768.243 532.452C611.314 535.182 483.178 441.542 360.955 352.246C310.768 315.576 261.541 279.627 211.862 251.499C93.2871 184.406 -28.545 162.065 -175.234 281.857L-175.822 273.473L-175.853 273.475Z" fill="white"/>
</mask>
<g mask="url(#mask5_281_7153)">
<path d="M-152.676 603.974L1553.29 484.339L1522.55 45.9564L-183.418 165.591L-152.676 603.974Z" fill="url(#paint5_linear_281_7153)"/>
</g>
<mask id="mask6_281_7153" style="mask-type:luminance" maskUnits="userSpaceOnUse" x="-175" y="182" width="1713" height="355">
<path d="M-174.656 290.546C-24.7208 169.919 101.817 194.961 225.74 263.983C274.124 290.929 321.941 324.492 370.621 358.691C492.27 444.118 619.304 533.289 770.866 529.661C896.772 526.681 967.402 441.258 1037.7 356.223C1143.47 228.267 1248.56 101.238 1536.77 248.301L1537.32 256.113C1251.32 108.622 1147.69 233.912 1043.36 360.099C972.036 446.389 900.344 533.099 770.957 536.141C616.852 539.825 488.828 449.936 366.191 363.821C317.641 329.734 269.918 296.225 221.946 269.522C99.6951 201.444 -25.2689 177.232 -174.098 298.932L-174.686 290.548L-174.656 290.546Z" fill="white"/>
</mask>
<g mask="url(#mask6_281_7153)">
<path d="M-152.468 606.93L1553.5 487.295L1523.63 61.3383L-182.34 180.973L-152.468 606.93Z" fill="url(#paint6_linear_281_7153)"/>
</g>
<mask id="mask7_281_7153" style="mask-type:luminance" maskUnits="userSpaceOnUse" x="-174" y="192" width="1713" height="349">
<path d="M-173.46 307.586C-21.1298 184.822 108.836 212.078 236.679 282.098C283.046 307.518 329.078 338.539 375.844 370.085C497.817 452.336 624.655 537.854 773.489 533.357C897.221 529.62 968.143 446.207 1038.67 363.216C1145.74 237.261 1252.06 112.328 1537.5 259.131L1538.05 266.972C1254.76 119.716 1149.9 242.97 1044.28 367.187C972.691 451.405 900.732 536.042 773.645 539.893C622.363 544.5 494.535 458.265 371.577 375.355C324.972 343.95 279.095 312.978 232.982 287.722C106.777 218.588 -21.6132 192.191 -172.836 316.059L-173.43 307.584L-173.46 307.586Z" fill="white"/>
</mask>
<g mask="url(#mask7_281_7153)">
<path d="M-152.261 609.885L1553.71 490.251L1524.69 76.4185L-181.282 196.053L-152.261 609.885Z" fill="url(#paint7_linear_281_7153)"/>
</g>
<mask id="mask8_281_7153" style="mask-type:luminance" maskUnits="userSpaceOnUse" x="-173" y="203" width="1712" height="341">
<path d="M-172.265 324.627C-17.1938 199.458 116.492 229.181 248.6 300.387C292.763 324.204 336.673 352.616 381.123 381.383C503.39 460.493 629.948 542.453 776.022 537.059C897.521 532.6 968.706 451.199 1039.5 370.22C1147.89 246.264 1255.44 123.275 1538.25 269.868L1538.8 277.74C1258.11 130.695 1151.98 251.977 1045.05 374.256C973.223 456.399 901.028 538.961 776.236 543.56C627.745 549.063 500.172 466.477 376.95 386.707C332.595 357.994 288.812 329.664 244.933 306.009C114.462 235.688 -17.7095 206.798 -171.669 333.132L-172.265 324.627Z" fill="white"/>
</mask>
<g mask="url(#mask8_281_7153)">
<path d="M-152.056 612.811L1553.91 493.176L1525.72 91.2271L-180.243 210.862L-152.056 612.811Z" fill="url(#paint8_linear_281_7153)"/>
</g>
<mask id="mask9_281_7153" style="mask-type:luminance" maskUnits="userSpaceOnUse" x="-172" y="213" width="1712" height="335">
<path d="M-171.07 341.668C-12.8889 213.734 124.97 246.348 261.712 318.804C303.138 340.752 344.588 366.518 386.481 392.525C508.926 468.561 635.175 546.966 778.49 540.705C897.756 535.523 969.143 456.139 1040.14 377.177C1149.87 255.156 1258.74 134.166 1539 280.515L1539.55 288.356C1261.32 141.472 1153.91 260.904 1045.67 381.275C973.632 461.371 901.233 541.887 778.766 547.232C633.064 553.6 505.831 474.567 382.404 397.933C340.734 372.062 299.505 346.433 258.049 324.486C122.94 252.855 -13.4068 221.045 -170.474 350.173L-171.07 341.668Z" fill="white"/>
</mask>
<g mask="url(#mask9_281_7153)">
<path d="M-151.849 615.767L1554.12 496.132L1526.75 105.795L-179.222 225.429L-151.849 615.767Z" fill="url(#paint9_linear_281_7153)"/>
</g>
<mask id="mask10_281_7153" style="mask-type:luminance" maskUnits="userSpaceOnUse" x="-170" y="223" width="1711" height="329">
<path d="M-169.869 358.799C-8.11838 227.736 134.397 263.66 276.183 337.581C314.625 357.617 353.088 380.531 391.865 403.604C514.46 476.598 640.313 551.516 780.902 544.415C897.907 538.544 969.466 461.178 1040.66 384.202C1151.74 264.118 1261.99 145.002 1539.75 291.161L1540.3 299.033C1264.51 152.342 1155.72 269.87 1046.07 388.399C973.867 466.446 901.294 544.913 781.209 550.94C638.292 558.144 511.458 482.628 387.915 409.094C349.296 386.101 310.993 363.297 272.58 343.259C132.368 270.167 -8.64254 234.956 -169.275 367.274L-169.869 358.799Z" fill="white"/>
</mask>
<g mask="url(#mask10_281_7153)">
<path d="M-151.639 618.752L1554.33 499.118L1527.74 120.03L-178.224 239.665L-151.639 618.752Z" fill="url(#paint10_linear_281_7153)"/>
</g>
<mask id="mask11_281_7153" style="mask-type:luminance" maskUnits="userSpaceOnUse" x="-169" y="233" width="1711" height="323">
<path d="M-168.683 375.719C36.6278 208.868 213.962 309.969 397.296 414.498C519.952 484.457 645.322 555.954 783.22 548.071C897.936 541.542 969.634 466.167 1041 391.18C1153.46 272.969 1265.13 155.662 1540.48 301.657L1541.04 309.559C1267.59 163.007 1157.38 278.756 1046.36 395.441C974.007 471.468 901.32 547.882 783.586 554.592C643.424 562.603 517.075 490.539 393.474 420.07C211.716 316.4 35.9031 216.253 -168.065 384.526L-168.683 375.719Z" fill="white"/>
</mask>
<g mask="url(#mask11_281_7153)">
<path d="M-151.432 621.708L1554.54 502.074L1526.65 104.377L-179.321 224.012L-151.432 621.708Z" fill="url(#paint11_linear_281_7153)"/>
</g>
<mask id="mask12_281_7153" style="mask-type:luminance" maskUnits="userSpaceOnUse" x="-168" y="243" width="1710" height="317">
<path d="M-167.483 392.82C37.4006 225.938 217.662 324.258 402.781 425.297C525.439 492.256 650.301 560.393 785.477 551.732C897.904 544.545 969.684 471.195 1041.15 398.14C1155.04 281.769 1268.14 166.18 1541.21 312.032L1541.77 319.995C1270.54 173.559 1158.85 287.594 1046.46 402.496C973.998 476.53 901.228 550.889 785.904 558.249C648.496 567.066 522.687 498.389 399.084 430.921C215.476 330.685 36.6976 233.201 -166.87 401.567L-167.483 392.82Z" fill="white"/>
</mask>
<g mask="url(#mask12_281_7153)">
<path d="M-151.223 624.694L1554.75 505.06L1527.84 121.388L-178.128 241.022L-151.223 624.694Z" fill="url(#paint12_linear_281_7153)"/>
</g>
<mask id="mask13_281_7153" style="mask-type:luminance" maskUnits="userSpaceOnUse" x="-167" y="253" width="1710" height="310">
<path d="M-166.284 409.921C38.2273 242.914 221.413 338.421 408.319 435.972C530.92 499.964 655.187 564.809 787.676 555.427C897.755 547.617 969.584 476.264 1041.13 405.173C1156.45 290.611 1271.1 176.733 1541.94 322.438L1542.5 330.4C1273.43 184.025 1160.23 296.469 1046.35 409.596C973.84 481.633 901.049 553.963 788.102 561.944C653.414 571.51 528.232 506.154 404.718 441.68C219.29 344.875 37.5503 250.114 -165.673 418.637L-166.284 409.921Z" fill="white"/>
</mask>
<g mask="url(#mask13_281_7153)">
<path d="M-150.999 627.891L1554.97 508.257L1529.03 138.338L-176.94 257.973L-150.999 627.891Z" fill="url(#paint13_linear_281_7153)"/>
</g>
<mask id="mask14_281_7153" style="mask-type:luminance" maskUnits="userSpaceOnUse" x="-166" y="263" width="1710" height="304">
<path d="M-165.087 426.992C39.1059 259.764 225.244 352.428 413.876 446.493C536.364 507.584 659.951 569.203 789.78 559.068C897.516 550.694 969.332 481.313 1040.92 412.159C1157.7 299.343 1273.95 187.141 1542.66 332.722L1543.22 340.685C1276.18 194.349 1161.41 305.175 1046.08 416.586C973.556 486.654 900.774 556.952 790.295 565.548C658.324 575.834 533.827 513.763 410.428 452.221C223.211 358.875 38.5109 266.838 -164.45 435.646L-165.057 426.99L-165.087 426.992Z" fill="white"/>
</mask>
<g mask="url(#mask14_281_7153)">
<path d="M-150.668 632.596L1555.3 512.962L1530.21 155.198L-175.757 274.832L-150.668 632.596Z" fill="url(#paint14_linear_281_7153)"/>
</g>
<mask id="mask15_281_7153" style="mask-type:luminance" maskUnits="userSpaceOnUse" x="-164" y="273" width="1708" height="298">
<path d="M-163.89 444.063C40.071 276.548 229.162 366.368 419.487 456.92C541.802 515.113 664.65 573.541 791.824 562.713C897.215 553.746 968.96 486.37 1040.53 419.097C1158.79 307.996 1276.66 197.347 1543.37 342.856L1543.93 350.879C1278.87 204.617 1162.42 313.924 1045.61 423.651C973.097 491.778 900.415 560.039 792.371 569.222C663.118 580.226 539.33 521.348 416.106 462.734C227.161 372.843 39.4477 283.654 -163.306 452.811L-163.92 444.065L-163.89 444.063Z" fill="white"/>
</mask>
<g mask="url(#mask15_281_7153)">
<path d="M-150.343 637.241L1555.63 517.606L1531.38 171.937L-174.584 291.571L-150.343 637.241Z" fill="url(#paint15_linear_281_7153)"/>
</g>
<mask id="mask16_281_7153" style="mask-type:luminance" maskUnits="userSpaceOnUse" x="-163" y="282" width="1708" height="293">
<path d="M-162.697 461.073C41.0833 293.147 233.125 380.093 425.113 467.134C547.169 522.496 669.226 577.857 793.775 566.335C896.765 556.839 968.404 491.41 1039.93 426.049C1159.7 316.661 1279.28 207.438 1544.08 352.93L1544.64 360.953C1281.42 214.683 1163.27 322.563 1044.95 430.638C972.511 496.82 899.961 563.071 794.411 572.807C667.813 584.503 544.85 528.75 421.887 472.997C231.245 386.56 40.5485 300.216 -162.051 469.848L-162.667 461.071L-162.697 461.073Z" fill="white"/>
</mask>
<g mask="url(#mask16_281_7153)">
<path d="M-150.019 641.855L1555.95 522.221L1532.55 188.555L-173.418 308.189L-150.019 641.855Z" fill="url(#paint16_linear_281_7153)"/>
</g>
<mask id="mask17_281_7153" style="mask-type:luminance" maskUnits="userSpaceOnUse" x="-162" y="292" width="1708" height="287">
<path d="M-161.502 478.114C42.1842 309.71 237.174 393.751 430.765 477.285C552.532 529.818 673.738 582.118 795.666 569.96C896.285 559.934 967.699 496.491 1039.17 433.013C1160.43 325.278 1281.8 217.475 1544.78 362.943L1545.34 370.966C1283.88 224.664 1163.93 331.185 1044.1 437.668C971.748 501.935 899.45 566.168 796.364 576.458C672.449 588.815 550.338 536.125 427.664 483.2C235.385 400.211 41.6494 316.779 -160.852 486.949L-161.472 478.112L-161.502 478.114Z" fill="white"/>
</mask>
<g mask="url(#mask17_281_7153)">
<path d="M-149.696 646.47L1556.27 526.836L1533.34 199.865L-172.625 319.5L-149.696 646.47Z" fill="url(#paint17_linear_281_7153)"/>
</g>
<mask id="mask18_281_7153" style="mask-type:luminance" maskUnits="userSpaceOnUse" x="-161" y="301" width="1708" height="282">
<path d="M-160.309 495.124C43.3087 326.179 241.304 407.252 436.435 487.253C557.859 537.052 678.157 586.354 797.466 573.593C895.659 563.1 966.844 501.582 1038.14 439.965C1160.97 333.818 1284.2 227.43 1545.48 372.866L1546.04 380.919C1286.24 234.561 1164.42 339.789 1043.05 444.682C970.865 507.059 898.821 569.304 798.223 580.056C676.929 593.048 555.757 543.382 433.459 493.22C239.546 413.74 42.7698 333.188 -159.689 503.962L-160.309 495.124Z" fill="white"/>
</mask>
<g mask="url(#mask18_281_7153)">
<path d="M-149.378 650.994L1556.59 531.36L1534.05 209.879L-171.923 329.513L-149.378 650.994Z" fill="url(#paint18_linear_281_7153)"/>
</g>
<mask id="mask19_281_7153" style="mask-type:luminance" maskUnits="userSpaceOnUse" x="-160" y="311" width="1707" height="276">
<path d="M-159.112 512.195C44.5175 342.552 245.485 420.628 442.126 497.098C563.116 544.17 682.453 590.569 799.233 577.166C894.998 566.207 965.864 506.621 1036.96 446.867C1161.35 342.308 1286.49 237.18 1546.16 382.698L1546.73 390.781C1288.48 244.376 1164.71 348.316 1041.75 451.654C969.799 512.165 898.102 572.445 800.023 583.688C681.348 597.284 561.139 550.552 439.277 503.147C243.818 427.11 44.0066 349.529 -158.494 521.002L-159.112 512.195Z" fill="white"/>
</mask>
<g mask="url(#mask19_281_7153)">
<path d="M-149.061 655.518L1556.91 535.884L1534.74 219.801L-171.227 339.436L-149.061 655.518Z" fill="url(#paint19_linear_281_7153)"/>
</g>
<mask id="mask20_281_7153" style="mask-type:luminance" maskUnits="userSpaceOnUse" x="-170" y="88" width="1706" height="387">
<path d="M-169.526 363.685C213.228 -61.3842 423.071 89.6592 660.882 260.927C801.366 362.097 951.65 470.338 1153.4 469.283C1319.19 468.417 1406.59 371.482 1494.16 274.354C1507.8 259.213 1521.47 244.1 1535.41 229.302L1535.91 236.45C1523.3 249.912 1510.9 263.633 1498.53 277.382C1410.12 375.448 1321.84 473.353 1153.36 474.227C949.604 475.301 798.491 366.481 657.273 264.787C421.026 94.6519 212.624 -55.3104 -169.01 371.044L-169.526 363.685Z" fill="white"/>
</mask>
<g mask="url(#mask20_281_7153)">
<path d="M-154.579 576.829L1551.39 457.195L1508.65 -152.259L-197.318 -32.6242L-154.579 576.829Z" fill="url(#paint20_linear_281_7153)"/>
</g>
<mask id="mask21_281_7153" style="mask-type:luminance" maskUnits="userSpaceOnUse" x="-146" y="90" width="1676" height="646">
<path d="M-145.364 708.239C-78.525 722.616 -8.29146 730.511 66.1667 729.927C346.066 727.726 494.17 570.19 642.557 412.362C837.929 204.503 1033.81 -3.8469 1529.04 135.518L1529.45 141.309C1037.06 1.86573 842.644 208.628 648.738 414.929C499.193 573.96 349.933 732.728 65.8544 734.98C-8.33022 735.575 -78.3724 727.818 -144.979 713.728L-145.364 708.239Z" fill="white"/>
</mask>
<g mask="url(#mask21_281_7153)">
<path d="M-141.231 767.172L1564.95 647.523L1516.89 -37.7238L-189.286 81.9255L-141.231 767.172Z" fill="url(#paint21_linear_281_7153)"/>
</g>
</g>
</g>
<defs>
<linearGradient id="paint0_linear_281_7153" x1="730.474" y1="731.684" x2="467.773" y2="-1541.72" gradientUnits="userSpaceOnUse">
<stop stop-color="#808080"/>
<stop offset="1" stop-color="white"/>
</linearGradient>
<linearGradient id="paint1_linear_281_7153" x1="379.712" y1="1013.73" x2="1093.09" y2="-698.327" gradientUnits="userSpaceOnUse">
<stop stop-color="#CCCCCC"/>
<stop offset="1" stop-color="white"/>
</linearGradient>
<linearGradient id="paint2_linear_281_7153" x1="395.549" y1="1010.44" x2="1072.2" y2="-669.163" gradientUnits="userSpaceOnUse">
<stop stop-color="#CCCCCC"/>
<stop offset="1" stop-color="white"/>
</linearGradient>
<linearGradient id="paint3_linear_281_7153" x1="354.445" y1="1009.68" x2="911.925" y2="-181.322" gradientUnits="userSpaceOnUse">
<stop stop-color="#CCCCCC"/>
<stop offset="1" stop-color="white"/>
</linearGradient>
<linearGradient id="paint4_linear_281_7153" x1="358.571" y1="1011.61" x2="916.05" y2="-179.39" gradientUnits="userSpaceOnUse">
<stop stop-color="#CCCCCC"/>
<stop offset="1" stop-color="white"/>
</linearGradient>
<linearGradient id="paint5_linear_281_7153" x1="362.651" y1="1013.52" x2="920.128" y2="-177.475" gradientUnits="userSpaceOnUse">
<stop stop-color="#CCCCCC"/>
<stop offset="1" stop-color="white"/>
</linearGradient>
<linearGradient id="paint6_linear_281_7153" x1="366.687" y1="1015.41" x2="924.161" y2="-175.579" gradientUnits="userSpaceOnUse">
<stop stop-color="#CCCCCC"/>
<stop offset="1" stop-color="white"/>
</linearGradient>
<linearGradient id="paint7_linear_281_7153" x1="370.669" y1="1017.27" x2="928.144" y2="-173.717" gradientUnits="userSpaceOnUse">
<stop stop-color="#CCCCCC"/>
<stop offset="1" stop-color="white"/>
</linearGradient>
<linearGradient id="paint8_linear_281_7153" x1="374.593" y1="1019.11" x2="932.066" y2="-171.877" gradientUnits="userSpaceOnUse">
<stop stop-color="#CCCCCC"/>
<stop offset="1" stop-color="white"/>
</linearGradient>
<linearGradient id="paint9_linear_281_7153" x1="378.454" y1="1020.92" x2="935.928" y2="-170.07" gradientUnits="userSpaceOnUse">
<stop stop-color="#FFCBCB"/>
<stop offset="1" stop-color="white"/>
</linearGradient>
<linearGradient id="paint10_linear_281_7153" x1="382.25" y1="1022.69" x2="939.726" y2="-168.298" gradientUnits="userSpaceOnUse">
<stop stop-color="#CCCCCC"/>
<stop offset="1" stop-color="white"/>
</linearGradient>
<linearGradient id="paint11_linear_281_7153" x1="379.451" y1="1021.39" x2="936.926" y2="-169.605" gradientUnits="userSpaceOnUse">
<stop stop-color="#CCCCCC"/>
<stop offset="1" stop-color="white"/>
</linearGradient>
<linearGradient id="paint12_linear_281_7153" x1="383.869" y1="1023.45" x2="941.346" y2="-167.541" gradientUnits="userSpaceOnUse">
<stop stop-color="#CCCCCC"/>
<stop offset="1" stop-color="white"/>
</linearGradient>
<linearGradient id="paint13_linear_281_7153" x1="388.315" y1="1025.54" x2="945.791" y2="-165.457" gradientUnits="userSpaceOnUse">
<stop stop-color="#CCCCCC"/>
<stop offset="1" stop-color="white"/>
</linearGradient>
<linearGradient id="paint14_linear_281_7153" x1="393.071" y1="1027.76" x2="950.545" y2="-163.227" gradientUnits="userSpaceOnUse">
<stop stop-color="#CCCCCC"/>
<stop offset="1" stop-color="white"/>
</linearGradient>
<linearGradient id="paint15_linear_281_7153" x1="397.798" y1="1029.97" x2="955.271" y2="-161.013" gradientUnits="userSpaceOnUse">
<stop stop-color="#CCCCCC"/>
<stop offset="1" stop-color="white"/>
</linearGradient>
<linearGradient id="paint16_linear_281_7153" x1="402.488" y1="1032.17" x2="959.959" y2="-158.814" gradientUnits="userSpaceOnUse">
<stop stop-color="#CCCCCC"/>
<stop offset="1" stop-color="white"/>
</linearGradient>
<linearGradient id="paint17_linear_281_7153" x1="405.989" y1="1033.81" x2="963.462" y2="-157.177" gradientUnits="userSpaceOnUse">
<stop stop-color="#CCCCCC"/>
<stop offset="1" stop-color="white"/>
</linearGradient>
<linearGradient id="paint18_linear_281_7153" x1="409.21" y1="1035.32" x2="966.683" y2="-155.668" gradientUnits="userSpaceOnUse">
<stop stop-color="#CCCCCC"/>
<stop offset="1" stop-color="white"/>
</linearGradient>
<linearGradient id="paint19_linear_281_7153" x1="412.389" y1="1036.81" x2="969.86" y2="-154.176" gradientUnits="userSpaceOnUse">
<stop stop-color="#CCCCCC"/>
<stop offset="1" stop-color="white"/>
</linearGradient>
<linearGradient id="paint20_linear_281_7153" x1="567.096" y1="533.752" x2="776.467" y2="-78.4264" gradientUnits="userSpaceOnUse">
<stop stop-color="#11418B"/>
<stop offset="1" stop-color="white"/>
</linearGradient>
<linearGradient id="paint21_linear_281_7153" x1="732.605" y1="776.453" x2="453.862" y2="-1786.82" gradientUnits="userSpaceOnUse">
<stop stop-color="#ADC0DD"/>
<stop offset="1" stop-color="white"/>
</linearGradient>
</defs>
</svg>
