<svg width="849" height="232" viewBox="0 0 849 232" fill="none" xmlns="http://www.w3.org/2000/svg">
<g opacity="0.5">
<path fill-rule="evenodd" clip-rule="evenodd" d="M279.748 -47.9814C285.454 -56.2751 277.327 -75.7036 274.426 -84.8246C268.692 -102.862 261.96 -120.517 255.445 -138.229C248.929 -155.94 242.362 -173.652 237.041 -191.825C233.584 -203.623 229.309 -217.177 230.265 -229.931C232.309 -257.108 266.12 -229.377 275.687 -223.358C300.028 -208.05 326.746 -188.763 355.837 -183.449C373.203 -180.277 385.453 -186.678 392.799 -203.306C395.196 -208.708 396.301 -216.072 401.818 -219.125C407.71 -222.385 415.327 -221.337 421.333 -220.011C443.231 -215.168 463.388 -202.369 482.028 -190.723C502.141 -178.183 521.571 -164.27 540.929 -150.935C549.137 -145.281 559.842 -142.446 569.389 -139.554C581.904 -135.762 594.582 -132.461 607.211 -129.012C634.98 -121.406 663.72 -113.748 688.7 -99.3649C704.344 -90.3581 719.312 -77.4485 723.214 -58.5714C725.172 -49.0933 722.534 -38.8582 720.842 -29.3131C718.807 -17.7762 716.553 -6.266 714.874 5.31435C709.469 42.6132 710.417 83.3888 741.52 107.008C746.226 110.58 751.451 113.219 756.364 116.445C759.49 118.503 761.681 121.186 760.467 125.372C757.428 135.876 739.071 143.039 730.681 147.22C712.312 156.37 693.369 164.138 674.749 172.675C662.433 178.318 643.539 184.597 635.354 196.163C628.061 206.468 635.924 223.039 639.492 233.088C642.837 242.5 650.269 257.581 644.244 267.816C641.322 272.778 635.66 274.64 630.476 275.536C621.397 277.094 612.583 276.52 603.527 279.202C588.673 283.604 572.535 292.649 564.322 306.779C558.632 316.571 559.428 326.125 561.773 336.357C562.758 340.659 563.734 343.896 561.124 347.956C556.983 354.406 550.024 359.442 544.049 363.939C522.669 380.033 498.875 393.43 474.912 404.724C462.937 410.369 450.546 415.682 437.762 418.713C429.38 420.712 418.656 422.571 411.464 417.565C403.132 411.778 396.519 402.481 390.068 394.483C378.021 379.542 366.637 364.036 355.405 348.438C329.432 312.362 304.468 275.525 280.513 237.928C263.65 211.428 246.293 184.564 233.137 155.766C230.584 150.132 228.576 144.236 227.14 138.157C225.562 131.724 221.62 126.599 217.323 121.834C190.65 92.2593 151.784 73.7465 117.311 55.1215C108.562 50.3924 99.8092 45.6681 91.2266 40.6506C83.8484 36.3374 74.3801 32.0881 69.2164 25.0057C59.0382 11.0554 82.6368 2.08489 92.4318 -1.44577C126.919 -13.8776 163.842 -19.016 199.421 -25.731C216.349 -28.94 233.334 -32.0701 250.12 -36.2251C258.854 -38.3799 274.746 -40.7109 279.748 -47.9814Z" stroke="#11418B" stroke-width="0.689687"/>
<path fill-rule="evenodd" clip-rule="evenodd" d="M286.726 -45.2014C287.457 -57.6631 282.57 -70.6435 279.013 -82.1363C273.895 -98.6784 268.087 -114.978 262.619 -131.396C257.448 -146.921 252.319 -162.553 248.703 -178.617C246.498 -188.412 243.503 -200.375 246.352 -210.619C252.521 -232.828 284.228 -206.786 292.845 -201.494C314.264 -188.332 337.821 -172.364 363.428 -168.526C379.419 -166.131 391.08 -172.477 397.936 -187.77C400.309 -193.06 401.502 -198.155 406.739 -201.421C412.799 -205.201 420.459 -204.861 426.99 -203.841C447.449 -200.647 466.627 -189.666 484.122 -179.462C502.196 -168.921 520.709 -157.48 536.6 -144.971C542.955 -139.971 552.145 -136.914 559.902 -134.078C571.84 -129.717 583.958 -125.834 595.979 -121.701C620.413 -113.305 645.23 -104.328 666.91 -90.2099C682.562 -80.0174 696.826 -66.4303 702.919 -47.9744C709.09 -29.2645 704.35 -10.1972 701.561 9.12105C696.726 42.5105 692.516 84.2662 717.526 109.401C721.317 113.213 725.792 115.681 729.995 118.891C732.158 120.539 734.481 122.617 734 125.724C732.753 133.79 717.051 139.216 711.136 141.95C694.792 149.505 677.95 155.791 661.418 162.852C648.289 168.457 632.727 174.008 622.139 184.109C609.292 196.365 621.337 219.802 621.069 234.529C620.601 260.065 591.628 254.676 574.97 255.437C555.843 256.308 533.43 266.566 534.368 289.12C534.729 297.745 537.662 304.774 534.455 313.476C529.439 327.085 518.024 338.69 507.679 348.401C492.12 362.995 474.56 375.922 455.935 385.942C442.596 393.113 421.168 404.002 408.377 393.185C399.76 385.91 392.595 376.22 385.568 367.174C375.046 353.631 365.102 339.618 355.357 325.468C332.84 292.836 311.477 259.261 291.582 224.834C278.01 201.341 248.702 123.499 245.431 119.176C235.675 106.291 220.825 97.0521 207.372 88.6553C189.478 77.4844 170.733 67.7236 152.115 57.8108C143.256 53.0868 134.206 48.5487 125.644 43.3053C119.55 39.5728 111.653 34.5169 109.016 27.3583C103.868 13.3886 126.172 5.09863 135.502 1.51756C164.094 -9.46828 194.497 -15.0628 224.066 -21.8372C238.579 -25.1661 253.208 -28.3932 267.466 -32.9747C273.22 -34.8273 286.276 -37.5031 286.726 -45.2014Z" stroke="#11418B" stroke-width="0.689687"/>
<path fill-rule="evenodd" clip-rule="evenodd" d="M297.237 -44.552C294.8 -72.1991 283.695 -99.2145 276.462 -125.914C272.833 -139.318 269.288 -152.959 267.834 -166.932C267.077 -174.198 266.181 -183.344 269.829 -190.207C279.589 -208.563 308.272 -185.242 317.78 -179.592C336.167 -168.673 356.617 -155.873 378.521 -153.487C391.906 -152.032 402.718 -157.392 408.828 -170.063C411.54 -175.685 413.275 -180.856 418.785 -184.398C424.368 -187.986 431.179 -188.523 437.428 -188.133C455.388 -187.016 472.796 -178.556 488.294 -170.498C506.463 -161.029 523.859 -150.177 540.339 -138.03C554.777 -127.398 572.611 -121.805 589.084 -114.842C610.903 -105.616 632.717 -95.6441 651.836 -81.5824C666.933 -70.4743 680.154 -56.4059 687.226 -38.5098C694.399 -20.3044 693.163 -1.37049 690.402 18.0701C686.229 47.4584 679.609 86.1266 697.896 111.09C700.554 114.723 703.719 117.118 707.179 119.832C708.859 121.149 711.098 122.751 710.629 125.281C709.497 131.37 695.527 134.998 691.194 136.635C677.364 141.861 663.269 146.235 649.36 151.209C636.375 155.853 622.532 160.478 610.941 168.438C592.485 181.119 606.306 205.629 594.338 221.616C586.907 231.54 572.6 232.422 561.779 232.389C548.46 232.342 532.657 227.416 520.281 235.614C511.062 241.72 512.92 250.29 512.53 259.512C511.871 275.137 502.125 290.169 492.687 302.23C479.936 318.53 464.205 333.133 446.954 344.275C439.135 349.326 430.465 354.208 421.406 356.058C412.919 357.793 407.353 355.882 401.52 350.269C383.666 333.079 369.628 309.98 355.941 288.551C338.746 261.626 322.614 233.881 308.165 205.236C298.313 185.703 288.449 165.424 282.798 143.965C281.326 138.372 279.952 132.45 280.135 126.547C280.26 122.103 281.165 118.989 279.01 114.905C272.622 102.802 257.8 94.5121 246.733 87.6224C229.039 76.6021 210.44 67.0613 192.022 57.3098C181.268 51.6277 159.953 42.4451 158.353 27.849C156.973 15.247 174.523 7.58301 183.542 3.58994C206.352 -6.50631 230.728 -12.3421 254.43 -19.321C265.292 -22.5194 276.422 -25.6145 286.833 -30.328C289.489 -31.5279 293.35 -32.8811 295.422 -35.1414C297.787 -37.7372 297.531 -41.1495 297.237 -44.552Z" stroke="#11418B" stroke-width="0.689687"/>
<path fill-rule="evenodd" clip-rule="evenodd" d="M295.661 -39.6045C292.924 -64.4537 285.507 -88.4585 281.087 -113.003C279.105 -124.008 277.28 -135.376 277.836 -146.735C278.134 -152.845 279.034 -160.171 283.446 -164.957C296.109 -178.695 320.056 -160.028 330.734 -153.931C346.59 -144.856 364.677 -134.247 383.587 -133.263C395.973 -132.617 404.727 -138.291 410.212 -149.639C416.095 -161.812 425.505 -167.08 438.585 -167.066C454.979 -167.042 471.123 -160.461 485.518 -153.753C502.853 -145.659 519.354 -135.946 534.821 -124.734C549.863 -113.829 566.518 -106.26 582.892 -97.4877C604.6 -85.8546 626.135 -72.5962 642.695 -54.034C657.112 -37.872 666.388 -17.8803 668.284 4.38866C670.272 27.6374 663.42 50.4293 662.019 73.6488C661.145 88.1316 660.432 107.598 669.261 119.596C672.206 123.598 680.48 126.705 672.886 131.056C668.544 133.545 662.983 134.511 658.269 135.735C650.65 137.716 642.986 139.464 635.344 141.327C619.055 145.3 601.966 149.043 586.645 156.503C567.347 165.89 571.941 186.621 559.552 201.125C552.887 208.932 542.708 211.787 533.206 212.985C527.056 213.764 520.866 213.839 514.727 213.656C508.315 213.465 501.569 212.027 495.136 213.071C485.974 214.551 484.006 222.47 480.284 230.024C473.746 243.303 465.662 255.79 456.218 267.202C444.643 281.192 431.089 294.436 415.521 303.642C409.462 307.227 402.541 310.682 395.563 311.061C388.586 311.441 384.069 307.946 379.616 303.279C366.401 289.451 356.109 271.483 346.311 254.423C334.049 233.07 322.853 210.947 313.389 188.054C306.857 172.25 300.71 155.809 297.986 138.641C297.195 133.646 296.691 128.535 296.97 123.414C297.16 119.901 298.55 116.163 297.634 112.788C294.759 102.239 279.747 94.3655 271.443 89.0954C254.872 78.5765 236.812 70.7432 220.189 60.3423C211.117 54.6668 196.63 46.1784 195.66 33.813C194.747 22.1874 208.349 14.324 216.935 9.69678C233.813 0.596285 252.074 -5.273 269.719 -12.3743C276.977 -15.2989 284.745 -18.2369 291.291 -22.7861C297.118 -26.8433 296.362 -33.2346 295.661 -39.6045Z" stroke="#11418B" stroke-width="0.689687"/>
<path fill-rule="evenodd" clip-rule="evenodd" d="M298.803 -37.047C297.528 -58.1265 292.983 -79.2089 291.784 -100.564C291.085 -113.068 289.65 -134.269 302.484 -142.298C316.578 -151.128 335.537 -138.467 347.061 -131.963C360.777 -124.222 377.045 -115.362 393.515 -115.548C398.723 -115.606 403.972 -116.825 408.233 -120.273C412.793 -123.962 414.131 -129.033 417.155 -133.797C423.501 -143.791 434.414 -147.772 445.407 -148.076C460.947 -148.508 476.288 -143.16 490.164 -137.223C505.875 -130.484 520.823 -122.159 534.795 -112.367C548.153 -103.018 561.62 -94.1283 575.276 -85.179C593.141 -73.4847 610.379 -60.3589 623.972 -43.6351C637.36 -27.1572 646.287 -7.50302 648.978 14.1563C651.601 35.2897 648.416 56.682 644.048 77.6915C641.567 89.6154 638.623 107.964 644.728 119.097C647.441 124.05 651.613 126.737 643.461 129.054C633.196 131.971 621.928 132.206 611.465 133.531C596.368 135.446 580.925 137.363 566.223 141.895C556.834 144.789 550.335 149.411 544.967 157.872C540.881 164.32 537.777 171.354 532.801 177.22C521.127 190.991 503.079 193.46 486.792 196.119C476.316 197.829 467.382 198.477 458.167 204.86C447.274 212.401 437.971 222.377 428.072 231.187C417.201 240.862 405.57 250.703 392.349 256.692C380.578 262.024 371.122 261.513 362.922 252.179C350.13 237.622 341.448 217.62 333.788 199.374C325.989 180.807 319.197 161.303 316.098 141.075C314.425 130.152 315.532 119.46 314.899 108.534C314.09 94.8073 295.971 87.2082 286.069 81.445C269.631 71.8782 214.151 47.1869 239.68 20.0808C250.335 8.76675 265.859 2.27691 279.031 -5.08891C284.495 -8.14786 291.609 -11.4322 295.798 -16.3764C300.361 -21.7611 299.183 -30.7044 298.803 -37.047Z" stroke="#11418B" stroke-width="0.689687"/>
<path fill-rule="evenodd" clip-rule="evenodd" d="M303.669 -31.9529C304.038 -49.9961 302.319 -68.4785 304.539 -86.7011C305.969 -98.5078 309.497 -113.16 321.734 -118.204C335.545 -123.895 351.877 -116.114 363.563 -109.944C375.603 -103.587 389.645 -95.5205 404.147 -97.0364C408.763 -97.5217 413.475 -99.2269 416.711 -102.94C419.816 -106.5 421.29 -111.195 424.417 -114.844C431.436 -123.04 441.55 -126.786 451.743 -127.517C481.896 -129.683 513.068 -113.171 536.669 -97.3831C548.481 -89.4792 559.754 -80.0733 570.972 -71.1527C585.528 -59.5773 599.32 -46.8531 610.307 -31.6433C633.667 0.69112 637.645 39.1807 631.284 79.2197C629.281 91.8221 625.672 104.456 627.539 116.998C628.497 123.471 625.739 125.726 619.497 126.686C609.739 128.184 599.603 127.469 589.84 127.596C575.955 127.775 561.802 127.915 548.079 130.151C538.62 131.692 530.942 134.174 524.023 141.533C519.09 146.779 515.152 152.881 510.541 158.405C501.778 168.896 490.661 177.626 478.182 182.709C468.28 186.731 457.93 189.448 447.605 191.72C434.173 194.687 421.832 198.608 409.169 204.407C392.395 212.074 364.847 228.575 351.075 209.579C335.887 188.624 329.469 157.727 328.599 131.505C328.307 122.7 329.7 113.12 326.842 104.792C322.556 92.3346 313.545 86.408 303.145 79.2241C287.578 68.4654 251.285 48.5358 267.984 23.7138C274.601 13.8801 284.985 7.44913 293.399 -0.585862C302.838 -9.57446 303.43 -19.6479 303.669 -31.9529Z" stroke="#11418B" stroke-width="0.689687"/>
<path fill-rule="evenodd" clip-rule="evenodd" d="M309.016 -26.6077C312.075 -48.3333 312.238 -87.4107 338.506 -95.6875C352.384 -100.064 367.784 -94.6348 380.103 -89.2173C390.023 -84.8662 400.999 -78.1967 412.638 -80.8754C421.194 -82.8459 424.437 -92.1094 430.936 -97.5013C438.995 -104.184 448.995 -107.287 459.036 -107.866C487.097 -109.483 515.398 -96.3042 537.903 -82.0516C561.274 -67.2471 583.158 -45.366 598.5 -21.8585C617.626 7.4557 623.361 41.7915 619.307 77.4136C618.558 83.9885 617.486 90.5252 616.594 97.0865C615.998 101.49 616.278 106.344 615.213 110.672C613.434 117.885 607.63 120.76 600.933 121.615C591.296 122.849 581.378 121.602 571.839 120.926C558.791 120.005 545.606 118.843 532.542 119.321C523.759 119.648 514.474 120.123 507.183 126.211C502.209 130.363 498.143 135.594 494.502 140.943C486.698 152.413 479.732 161.234 467.443 168.168C447.25 179.539 423.797 186.085 401.421 189.544C383.86 192.259 356.274 196.264 345.539 178.838C335.898 163.215 337.824 143.184 336.811 125.204C336.318 116.463 334.938 107.834 331.892 99.7444C328.052 89.5462 322.596 82.5964 314.443 75.7015C300.721 64.0962 278.818 48.3437 287.192 26.5924C290.281 18.5648 296.176 12.1212 300.125 4.55822C305.36 -5.43222 307.474 -15.6484 309.016 -26.6077Z" stroke="#11418B" stroke-width="0.689687"/>
<path fill-rule="evenodd" clip-rule="evenodd" d="M317.041 -20.1505C323.489 -41.7687 331.307 -69.228 356.132 -75.1793C368.157 -78.0628 380.61 -75.6945 392.014 -72.468C400.182 -70.1587 411.113 -63.5568 420 -67.7263C426.534 -70.7987 431.865 -77.5959 438.37 -81.2316C447.313 -86.2313 457.229 -88.578 467.174 -88.8993C493.083 -89.7398 518.745 -79.1948 540.013 -66.5066C586.224 -38.9329 614.212 16.5236 610.042 72.8847C608.801 89.6863 609.073 108.676 589.249 112.953C567.613 117.612 544.593 110.847 523.224 109.994C515.062 109.665 504.84 108.986 497.152 113.316C492.528 115.918 488.981 120.747 485.896 125.003C478.032 135.839 470.299 145.125 458.984 152.473C441.502 163.832 421.025 171.292 401.01 175.15C383.557 178.514 360.487 180.691 350.908 162.873C343.573 149.199 344.903 131.912 342.37 116.729C339.556 99.8245 332.133 84.5949 321.105 72.0123C310.371 59.7809 297.653 47.7262 300.323 29.29C301.239 22.966 303.012 15.1848 305.742 9.37738C310.275 -0.176791 314.053 -10.0521 317.041 -20.1505Z" stroke="#11418B" stroke-width="0.689687"/>
<path fill-rule="evenodd" clip-rule="evenodd" d="M326.364 -13.491C336.038 -33.1245 348.615 -51.8668 370.768 -57.2494C381.105 -59.7591 391.659 -59.3127 401.992 -58.3728C409.594 -57.6816 417.039 -56.3819 424.636 -58.6288C431.672 -60.7075 438.33 -64.1718 445.322 -66.4639C454.565 -69.5169 464.156 -71.0556 473.727 -71.0208C497.703 -70.9126 521.065 -62.4242 541.205 -51.1201C550.957 -45.6515 561.19 -39.2229 568.603 -30.5181C575.763 -22.1136 581.891 -12.4319 586.989 -2.56491C597.833 18.4019 603.467 41.9911 602.58 66.2506C601.968 82.889 598.187 96.8537 580.516 101.89C560.595 107.565 538.65 103.088 518.787 101.955C505.164 101.178 490.467 99.4836 480.034 110.695C471.732 119.614 464.047 128.216 453.866 135.026C438.8 145.038 422.064 151.962 404.65 155.388C388.75 158.483 371.394 158.427 361.665 144.117C353.961 132.773 352.097 118.05 347.411 105.196C342.2 90.8536 333.725 79.0553 324.11 67.624C315.478 57.3393 308.546 45.9336 308.223 31.7171C308.155 28.8106 308.136 25.6837 308.549 22.7719C309.076 19.0567 311.08 16.4021 312.951 13.1271C317.9 4.4906 321.985 -4.60578 326.364 -13.491Z" stroke="#11418B" stroke-width="0.689687"/>
<path fill-rule="evenodd" clip-rule="evenodd" d="M337.749 -7.73786C349.705 -24.4643 364.637 -37.7489 384.317 -43.5864C392.734 -46.0855 401.335 -46.9845 409.877 -48.6986C416.758 -50.084 423.215 -51.3271 430.186 -51.5651C446.712 -52.1151 462.856 -56.4678 479.447 -55.6548C501.606 -54.5838 523.012 -47.6316 542.054 -37.5699C551.353 -32.6577 560.464 -26.8702 568.32 -19.6665C575.068 -13.4797 579.736 -4.97141 583.831 3.26048C591.86 19.3905 597.429 38.2581 596.961 56.9103C595.93 98.0325 545.062 93.12 517.923 92.0835C505.441 91.6082 487.788 88.8374 476.642 97.3277C468.679 103.392 461.612 110.276 453.088 115.592C430.193 129.869 395.79 141.469 374.321 121.832C365.133 113.431 359.738 101.483 352.858 91.1976C345.773 80.6063 337.199 71.4904 328.699 62.1178C320.755 53.3597 315.373 45.0109 315.052 32.427C314.897 26.4158 318.466 21.828 321.599 16.7618C326.748 8.44198 332.091 0.188925 337.749 -7.73786Z" stroke="#11418B" stroke-width="0.689687"/>
<path fill-rule="evenodd" clip-rule="evenodd" d="M348.698 -3.33887C370.205 -26.1826 403.661 -44.1916 434.72 -44.5609C471.255 -44.9959 507.917 -41.2661 540.047 -25.1982C554.943 -17.7489 570.442 -8.40948 578.778 6.85461C585.125 18.4682 591.372 33.5779 589.626 47.512C585.358 81.5968 542.422 81.2685 517.801 81.3086C504.547 81.3297 488.965 79.4988 475.919 83.9131C468.353 86.4708 461.517 92.0575 454.343 95.6559C432.604 106.56 407.048 109.783 385.697 98.7042C375.825 93.5806 367.704 85.7962 359.511 78.402C351.124 70.8335 342.25 63.723 334.243 55.7292C327.853 49.3472 320.79 41.1514 323.827 31.0396C327.651 18.2955 339.916 5.99084 348.698 -3.33887Z" stroke="#11418B" stroke-width="0.689687"/>
<path fill-rule="evenodd" clip-rule="evenodd" d="M360.806 -0.99857C382.998 -21.1059 410.983 -36.3173 440.672 -36.9015C456.416 -37.2107 472.214 -34.0006 487.482 -31.0648C504.789 -27.7359 521.777 -22.6832 537.467 -15.1318C557.004 -5.73093 587.243 11.5142 581.747 39.0348C576.292 66.3508 540.351 68.9182 519.375 70.0375C505.93 70.7496 492.259 70.4784 478.765 72.0927C471.448 72.9673 464.737 75.1885 457.633 77.2411C437.979 82.9464 415.708 82.802 396.494 77.6369C377.87 72.632 357.783 62.1911 343.275 49.4933C337.012 44.0176 333.94 38.0829 336.949 29.3681C341.14 17.2596 351.637 7.30638 360.806 -0.99857Z" stroke="#11418B" stroke-width="0.689687"/>
<path fill-rule="evenodd" clip-rule="evenodd" d="M374.494 -1.05848C394.66 -18.3269 419.934 -29.3377 446.072 -29.9536C475.373 -30.6448 505.885 -21.1445 531.681 -9.17411C545.391 -2.80961 575.907 9.82288 570.659 30.6842C565.411 51.5456 536.074 55.3197 519.472 57.0836C499.335 59.2079 478.474 60.2741 458.144 60.6094C440.477 60.9067 421.888 60.8452 404.583 58.5313C394.807 57.2479 385.206 55.0744 375.891 52.0367C369.003 49.7736 359.985 47.2696 354.881 41.8484C342.011 28.1702 364.851 7.19781 374.494 -1.05848Z" stroke="#11418B" stroke-width="0.689687"/>
<path fill-rule="evenodd" clip-rule="evenodd" d="M390.245 0.516261C430.051 -30.9801 482.002 -23.9855 523.651 -5.19714C533.327 -0.829548 561.339 10.1406 557.666 25.657C554.103 40.6994 529.599 44.4545 518.073 46.2912C482.356 51.9826 445.288 48.8501 409.706 46.5391C398.599 45.8177 377.368 46.2454 370.934 34.7774C363.956 22.3165 381.993 7.04874 390.245 0.516261Z" stroke="#11418B" stroke-width="0.689687"/>
<path fill-rule="evenodd" clip-rule="evenodd" d="M407.968 1.44228C438.894 -20.6332 481.193 -16.2347 513.18 -2.25283C521.014 1.17316 541.451 9.0943 540.975 20.9178C540.536 31.8564 521.378 34.8423 514.034 36.2148C497.681 39.2729 480.742 39.3833 464.155 39.2783C448.817 39.1856 433.242 39.1934 418.124 37.6248C410.162 36.7968 394.661 36.0628 391.519 26.6203C388.133 16.4584 401.101 6.34428 407.968 1.44228Z" stroke="#11418B" stroke-width="0.689687"/>
<path fill-rule="evenodd" clip-rule="evenodd" d="M427.583 2.34079C448.927 -11.2781 479.053 -8.8238 500.87 0.191683C506.739 2.61997 519.758 7.38701 520.498 15.4974C521.179 22.9657 509.994 25.453 504.944 26.6817C482.559 32.1283 455.398 32.0155 433.165 28.0912C427.575 27.1043 417.303 25.6532 415.687 18.6861C414.032 11.535 422.681 5.46722 427.583 2.34079Z" stroke="#11418B" stroke-width="0.689687"/>
<path fill-rule="evenodd" clip-rule="evenodd" d="M447.664 4.34052C458.8 -2.04929 475.6 -1.03671 486.97 3.46835C494.971 6.64023 502.279 13.777 490.52 17.9039C478.844 21.9949 462.566 21.8317 450.879 18.6548C441.964 16.2298 438.101 9.83005 447.664 4.34052Z" stroke="#11418B" stroke-width="0.689687"/>
<path fill-rule="evenodd" clip-rule="evenodd" d="M35.4828 -184.12C48.267 -203.145 52.3749 -229.292 70.3779 -245.22C85.1631 -258.302 105.43 -246.175 121.998 -245.247C135.162 -244.509 147.374 -250.916 159.057 -257.087C169.549 -262.625 179.766 -268.74 190.399 -273.97C197.277 -277.347 210.03 -284.504 216.795 -280.094C223.273 -275.873 223.246 -263.413 223.476 -255.876C223.778 -246.051 223.237 -236.176 223.328 -226.344C223.474 -209.764 227.197 -194.981 232.596 -179.688C238.741 -162.285 245.299 -145.044 252.27 -127.965C257.39 -115.372 262.605 -102.78 266.944 -89.8366C269.664 -81.7164 276.635 -65.185 271.31 -57.3968C268.77 -53.6807 262.606 -51.8917 258.315 -50.4908C251.054 -48.1186 243.56 -46.5428 236.122 -45.0752C222.267 -42.3407 208.332 -40.2219 194.422 -37.9435C176.368 -34.987 158.916 -31.8656 141.185 -26.5888C122.843 -21.1188 104.658 -14.9399 86.4012 -9.0675C74.0354 -5.08795 60.9521 -0.0607156 47.996 -1.34714C31.7774 -2.97142 26.9352 -16.5 15.1565 -24.7989C5.02507 -31.9393 23.067 -56.3133 26.5814 -64.1341C30.1497 -72.0423 31.819 -80.552 35.5885 -88.3456C40.2953 -98.0732 46.507 -107.055 52.3218 -116.153C59.437 -127.278 66.4395 -137.711 58.3341 -149.468C53.7185 -156.155 47.3038 -161.342 41.8151 -167.24C38.2603 -171.062 31.4437 -178.11 35.4828 -184.12Z" stroke="#11418B" stroke-width="0.689687"/>
<path fill-rule="evenodd" clip-rule="evenodd" d="M42.8132 -183.993C52.7053 -200.513 60.428 -225.086 77.7021 -237.233C92.4625 -247.615 109.644 -238.356 125.448 -238.218C138.49 -238.099 149.286 -245.23 160.446 -251.85C169.398 -257.161 178.295 -262.622 187.555 -267.351C194.379 -270.836 205.42 -277.052 212.394 -273.911C218.663 -271.087 218.874 -258.682 219.069 -252.31C219.35 -243.01 218.607 -233.639 218.088 -224.319C217.179 -207.947 217.242 -192.612 221.72 -177.012C226.219 -161.343 233.175 -147.131 240.074 -132.577C245.471 -121.191 250.717 -109.687 255.113 -97.8153C258.389 -88.9745 263.585 -76.9624 261.006 -67.046C258.967 -59.2001 240.097 -56.9372 234.114 -55.6679C221.805 -53.0638 209.393 -51.2141 196.998 -49.4174C181.89 -47.2307 167.235 -46.3205 152.362 -42.1858C125.765 -34.7974 98.5731 -21.4791 70.9363 -21.4539C54.2672 -21.4383 40.3728 -28.1243 28.6869 -37.9753C24.0594 -41.8759 27.9931 -50.0754 30.3567 -54.8097C34.282 -62.6753 39.1999 -70.0339 43.3852 -77.7617C47.3025 -84.9964 50.0752 -92.529 53.3125 -100.043C56.5942 -107.655 60.9631 -114.754 64.633 -122.164C66.9129 -126.764 69.6738 -132.041 69.3042 -137.268C68.923 -142.679 65.3269 -147.333 62.0682 -151.234C55.9349 -158.541 35.8333 -172.334 42.8132 -183.993Z" stroke="#11418B" stroke-width="0.689687"/>
<path fill-rule="evenodd" clip-rule="evenodd" d="M53.8419 -186.124C62.107 -201.854 72.124 -221.638 88.7031 -229.905C102.257 -236.665 116.637 -230.167 130.678 -230.953C142.355 -231.606 151.746 -239.023 161.573 -245.15C169.635 -250.175 177.735 -255.22 186.209 -259.444C192.636 -262.648 201.161 -267.123 208.042 -265.019C213.925 -263.218 214.564 -252.535 214.844 -247.245C215.317 -238.231 214.461 -229.094 213.64 -220.061C212.295 -205.282 209.967 -190.113 212.542 -175.543C215.052 -161.397 221.507 -149.592 227.72 -137.045C232.478 -127.433 237.075 -117.691 240.818 -107.57C243.694 -99.8011 247.406 -90.3845 245.814 -81.8867C244.448 -74.5535 233.399 -72.4245 227.436 -70.7236C217.592 -67.9186 207.536 -66.0574 197.545 -64.1149C186.764 -62.0209 175.655 -60.8981 164.967 -58.5038C142.485 -53.4589 121.54 -45.1325 98.3459 -45.4145C83.3233 -45.5955 65.2087 -48.8632 53.9139 -58.3831C45.7924 -65.2311 60.4562 -85.1235 64.1245 -92.186C70.1152 -103.739 75.2012 -116.716 77.7743 -129.403C79.9712 -140.281 73.1746 -148.826 66.5774 -156.19C62.4463 -160.806 57.7009 -165.045 54.1789 -170.191C50.1032 -176.15 50.3774 -179.531 53.8419 -186.124Z" stroke="#11418B" stroke-width="0.689687"/>
<path fill-rule="evenodd" clip-rule="evenodd" d="M291.498 431.676C264.617 430.665 236.752 425.887 209.974 422.104C170.842 416.573 131.557 410.353 93.5416 400.076C73.1612 394.565 46.1613 388.273 31.8115 371.534C26.5646 365.415 24.2299 356.307 20.765 349.035C15.9869 339.009 10.9368 329.126 5.90706 319.242C-4.187 299.423 -14.3916 279.656 -23.8244 259.474C-28.3656 249.755 -31.8824 239.043 -37.1883 229.758C-40.2879 224.329 -46.5514 221.511 -51.6001 218.212C-63.2962 210.57 -75.1879 203.225 -87.0161 195.789C-101.483 186.691 -116.01 177.612 -129.871 167.609C-136.122 163.096 -152.451 153.512 -151.94 145.337C-151.663 140.936 -143.363 138.418 -139.519 137.256C-132.457 135.117 -125.159 133.839 -117.949 132.564C-101.275 129.615 -84.3126 127.559 -67.9377 122.702C-59.5221 120.204 -48.8418 117.428 -46.4468 107.701C-44.0256 97.8781 -44.5018 87.5856 -42.268 77.6717C-39.6994 66.2616 -34.7648 55.9591 -29.9158 45.3363C-26.334 37.4837 -24.9833 29.2602 -23.2826 20.9083C-21.4017 11.6779 -19.5887 2.31114 -16.5043 -6.65836C-14.4676 -12.5838 -10.544 -23.0636 -3.46083 -22.7907C6.60587 -22.4066 17.1702 -9.71851 24.2041 -2.8864C33.9271 6.55274 43.2253 16.4327 52.7964 26.0271C59.7428 32.9949 66.6196 40.1215 74.5855 45.9043C87.4265 55.2268 101.154 63.3651 114.759 71.5145C139.951 86.6044 165.373 100.996 189.518 117.767C210.672 132.459 241.621 192.235 249.906 204.729C266.442 229.669 283.913 254.559 297.139 281.646C300.715 288.977 306.688 299.584 305.091 308.45C304.108 313.915 301.571 315.706 304.192 321.488C307.767 329.375 314.598 336.241 320.225 342.568C329.289 352.757 338.717 362.601 348.003 372.577C366.794 392.739 384.997 413.426 403.402 433.95C408.966 440.154 416.781 446.1 421.199 453.29C424.052 457.918 422.066 459.871 417.014 460.384C408.15 461.286 398.526 458.519 390.075 456.675C377.695 453.973 365.454 450.733 353.244 447.438C341.034 444.144 328.849 440.706 316.63 437.416C308.563 435.235 299.889 431.993 291.498 431.676Z" stroke="#11418B" stroke-width="0.689687"/>
<path fill-rule="evenodd" clip-rule="evenodd" d="M278.006 418.421C250.032 416.686 221.579 411.02 194.072 405.668C158.863 398.826 123.562 390.815 90.001 378.514C70.2977 371.289 47.2798 362.434 33.7107 345.602C28.8702 339.596 27.1123 332.434 24.3582 325.277C21.2224 317.115 17.6234 309.132 13.9843 301.207C6.49249 284.894 -1.31098 268.743 -9.4261 252.755C-13.714 244.272 -17.8193 234.049 -24.6825 227.372C-30.1383 222.062 -38.1755 218.68 -44.671 214.808C-56.368 207.836 -68.0795 200.889 -79.714 193.817C-93.1385 185.655 -106.558 177.408 -119.378 168.317C-126.523 163.251 -139.676 155.829 -141.356 147.39C-142.822 140.027 -115.909 135.77 -111.024 134.802C-95.7705 131.783 -80.3627 129.522 -65.2811 125.439C-56.3771 123.039 -45.5409 120.125 -38.1516 113.879C-31.8561 108.555 -30.0602 98.7528 -27.8571 91.3194C-25.0934 82.0111 -21.6549 72.7601 -19.4062 63.3302C-17.4013 54.9291 -17.4259 46.188 -16.8664 37.6738C-16.2505 28.308 -15.6094 18.7988 -13.5528 9.54305C-12.2795 3.85309 -10.1115 -5.65078 -3.58412 -7.38386C3.94979 -9.37642 14.5261 2.69102 19.3 7.03694C28.9718 15.8721 38.0787 25.3451 47.349 34.6024C62.7474 49.9761 77.6005 64.3844 95.9722 76.1647C119.899 91.5027 144.614 105.657 168.717 120.731C177.621 126.293 186.957 131.526 195.26 137.969C200.019 141.664 202.675 145.869 203.054 151.458C203.573 159.087 210.727 168.08 215.06 175.26C221.817 186.453 228.911 197.425 235.941 208.431C251.369 232.596 267.444 256.724 279.902 282.771C283.845 291.011 288.436 300.334 289 309.815C289.317 315.103 286.351 317.926 285.469 322.7C284.324 328.991 289.976 336.114 293.164 340.646C299.315 349.397 306.497 357.386 313.701 365.201C330.002 382.883 347.369 399.127 365.52 414.814C369.777 418.485 386.697 432.716 371.603 434.179C354.925 435.798 336.743 429.639 320.905 426.079C306.643 422.862 292.59 419.325 278.006 418.421Z" stroke="#11418B" stroke-width="0.689687"/>
<path fill-rule="evenodd" clip-rule="evenodd" d="M252.337 397.32C226.542 394.971 200.605 388.57 175.474 382.225C144.977 374.525 114.561 365.416 86.0472 352.344C68.1369 344.129 49.0523 334.12 36.5186 318.393C27.9584 307.655 25.6702 293.109 20.3559 280.504C15.0416 267.899 9.0871 255.396 2.18499 243.627C-2.09895 236.323 -6.84584 228.666 -14.1367 224.173C-31.8625 213.247 -50.4662 203.629 -68.3124 192.837C-80.1232 185.705 -91.8683 178.43 -103.088 170.373C-109.854 165.516 -119.552 159.423 -122.971 151.42C-126.749 142.572 -66.2051 131.475 -60.0338 129.779C-44.5604 125.527 -25.0064 119.202 -16.6449 103.679C-8.65252 88.8377 -8.28873 73.866 -8.4592 57.7696C-8.54591 48.6205 -11.1037 22.5629 -0.401269 18.1754C5.71469 15.6664 14.3428 23.9983 18.7465 27.5177C27.4258 34.4531 35.5662 42.057 43.8293 49.489C55.8845 60.3156 67.6776 72.2957 80.4191 82.2562C89.2924 89.1905 99.0654 94.9464 108.326 101.357C121.604 110.551 134.794 119.869 147.972 129.208C159.035 137.049 170.34 144.744 180.655 153.58C187.073 159.066 191.228 164.262 193.118 172.103C194.764 178.925 199.703 185.68 203.5 191.928C209.773 202.245 216.369 212.351 222.893 222.497C236.551 243.74 250.545 264.97 262.007 287.623C267.241 297.962 276.924 314.072 271.273 326.401C269.237 330.846 268.572 332.917 270.67 337.706C273.648 344.503 278.869 350.262 283.828 355.559C295.388 367.909 309.668 377.182 321.229 389.482C325.927 394.506 331.357 402.077 320.976 403.567C308.852 405.32 295.522 401.654 283.763 399.773C277.894 398.832 271.985 397.664 266.014 397.344C261.423 397.106 256.904 397.749 252.337 397.32Z" stroke="#11418B" stroke-width="0.689687"/>
<path fill-rule="evenodd" clip-rule="evenodd" d="M219.573 369.703C196.556 366.36 173.685 359.668 151.572 352.596C127.016 344.734 102.712 335.467 80.1828 323.059C64.6229 314.496 48.8545 304.206 37.9919 289.792C31.1232 280.675 29.3681 270.317 25.2963 259.825C19.1589 243.978 10.9468 229.095 -3.99387 220.952C-20.7414 211.818 -37.2476 202.228 -53.5123 192.182C-63.3238 186.123 -73.0828 179.91 -82.3052 172.978C-88.1378 168.598 -95.5908 162.867 -98.8115 156.387C-103.118 147.715 -56.6878 136.734 -50.473 134.75C-35.0596 129.83 -21.4457 122.89 -8.90894 112.238C1.31957 103.544 1.36347 91.1564 0.942922 79.0474C0.677763 71.5246 -2.64115 50.7619 5.57066 46.936C10.0879 44.8183 16.7327 49.7056 20.4959 52.0508C27.6662 56.5227 34.3798 61.7156 41.2029 66.6873C51.2714 74.0384 63.3196 79.9474 72.5415 88.3322C92.9815 106.911 113.64 125.054 134.865 142.799C146.566 152.58 158.413 162.312 169.283 173.051C173.185 176.907 177.201 180.91 180.192 185.58C182.118 188.582 182.265 191.519 183.458 194.675C189.155 209.708 200.697 223.423 209.632 236.728C221.511 254.415 233.546 272.064 244.19 290.604C249.788 300.356 258.288 312.997 258.424 325.058C258.465 328.703 256.37 330.14 255.833 333.243C255.21 336.82 258.465 340.277 260.406 342.741C264.808 348.337 286.417 367.183 268.654 369.735C260.185 370.944 251.496 369.458 243.082 369.188C240.036 369.091 237.036 369.038 234.009 369.659C228.939 370.706 224.832 370.459 219.573 369.703Z" stroke="#11418B" stroke-width="0.689687"/>
<path fill-rule="evenodd" clip-rule="evenodd" d="M184.801 340.077C141.472 330.439 95.3964 312.373 59.8724 285C48.0606 275.894 36.3068 264.723 30.5242 250.414C27.1195 241.97 25.338 233.87 18.8552 227.171C14.1749 222.336 7.493 219.494 1.7334 216.144C-6.6095 211.294 -14.91 206.373 -23.1421 201.338C-33.3412 195.087 -43.4836 188.687 -53.1498 181.629C-60.0561 176.586 -69.8835 170.039 -73.2186 161.822C-77.2038 152.016 -43.1972 142.62 -37.8325 140.463C-24.8301 135.235 -13.9254 128.994 -4.27253 118.515C-1.45536 115.465 2.53701 113.106 4.69535 109.559C6.8948 105.933 7.0151 101.428 7.03965 97.3933C7.07744 92.1088 4.47658 77.7068 9.94553 75.0288C12.9665 73.5507 18.2273 76.754 21.2 78.0606C26.7803 80.506 32.1216 83.447 37.5943 86.1108C46.8835 90.6244 58.1624 92.1462 66.4894 98.1086C88.8853 114.136 106.689 137.474 126.03 156.933C137.522 168.509 149.26 179.924 159.996 192.248C163.392 196.148 166.887 200.17 169.577 204.653C171.454 207.781 171.686 211.192 173.26 214.328C179.289 226.358 188.217 237.319 196.164 248.117C206.474 262.144 216.926 276.063 226.934 290.324C233.208 299.263 242.146 309.501 245.42 320.273C247.812 328.139 243.321 326.875 237.817 328.832C235.009 329.828 233.977 332.016 231.794 333.836C228.677 336.434 224.567 337.009 220.775 337.458C215.542 338.083 209.585 337.454 204.491 339.137C202.697 339.729 201.671 341.298 200.165 341.855C195.782 343.477 188.875 340.983 184.801 340.077Z" stroke="#11418B" stroke-width="0.689687"/>
<path fill-rule="evenodd" clip-rule="evenodd" d="M152.338 310.242C118.926 299.896 85.0223 283.671 57.6657 261.272C48.1483 253.477 39.3034 244.583 32.7519 233.99C29.7672 229.177 27.9942 224.89 23.3938 221.53C12.7182 213.736 1.20875 207.069 -9.79147 199.747C-17.6642 194.508 -25.507 189.143 -32.7965 183.104C-37.6715 179.067 -44.311 173.675 -46.2263 167.376C-49.0021 158.211 -26.3432 149.346 -20.8928 146.335C-11.8564 141.339 -2.25969 135.472 2.36245 125.639C3.77459 122.631 4.61706 119.692 6.41779 116.876C7.95491 114.448 9.74774 112.466 10.5207 109.662C11.4819 106.187 10.1362 98.8234 13.4213 97.2915C15.6625 96.2438 18.7479 98.2652 21.1529 99.1021C25.0535 100.46 29.0746 101.479 33.1748 102.15C37.4975 102.849 41.9265 102.365 46.1779 103.415C53.0768 105.123 59.3176 109.168 65.0438 113.159C87.8905 129.085 107.747 149.935 126.583 170.398C136.392 181.053 146.146 191.924 154.698 203.692C157.295 207.266 160.344 211.162 161.825 215.46C162.751 218.139 162.83 220.745 164.248 223.261C176.365 244.749 195.181 262.672 210.123 282.491C214.012 287.65 236.129 315.429 216.051 313.164C203.852 311.789 192.964 307.454 180.319 308.38C176.469 308.657 173.68 309.163 170.606 311.532C168.566 313.114 170.807 313.149 167.205 313.782C162.852 314.525 156.231 311.447 152.338 310.242Z" stroke="#11418B" stroke-width="0.689687"/>
<path fill-rule="evenodd" clip-rule="evenodd" d="M127.426 285.334C90.4434 270.145 56.2539 246.898 28.0442 217.998C20.9316 210.715 12.1242 205.157 4.09195 198.983C-3.71614 192.989 -18.6304 183.818 -19.945 173.192C-20.899 165.488 -9.27321 158.6 -3.9868 154.395C2.74816 149.039 9.38204 143.281 10.6087 134.388C11.3267 129.18 11.1924 123.654 11.7435 118.383C12.0055 115.865 11.8783 111.639 13.9377 110.512C17.3393 108.655 24.8363 112.086 29.0027 112.989C42.3185 115.878 54.0241 122.385 65.0534 130.091C85.4254 144.324 103.896 161.519 121.143 179.419C129.078 187.655 137.056 196.103 143.72 205.469C147.492 210.768 148.778 216.83 152.143 222.231C162.974 239.627 177.109 254.72 188.602 271.731C191.928 276.655 204.848 294.333 191.477 295.307C178.532 296.25 166.992 287.055 153.993 287.371C152.516 287.416 150.709 287.441 149.333 288.215C148.514 288.681 148.18 290.418 147.65 290.638C142.006 293.114 132.119 287.263 127.426 285.334Z" stroke="#11418B" stroke-width="0.689687"/>
<path fill-rule="evenodd" clip-rule="evenodd" d="M109.903 266.225C91.7995 257.181 74.5781 246.094 57.7474 234.627C48.5473 228.359 38.0753 221.996 30.8264 213.339C26.3762 208.017 21.9827 203.015 16.9765 198.132C11.5903 192.877 2.29228 185.318 2.42351 177.208C2.52231 171.147 10.3258 163.968 13.9183 159.011C17.8554 153.572 19.6235 148.739 18.6754 142.231C18.0815 138.136 13.7054 121.726 16.7413 119.979C19.6321 118.315 27.3101 123.085 30.9627 124.668C42.513 129.663 53.2743 136.083 63.5031 143.353C79.3473 154.608 94.1757 167.454 107.838 181.319C113.482 187.057 119.313 192.99 123.816 199.751C126.848 204.306 128.298 209.656 131.263 214.247C139.748 227.403 150.009 239.461 158.473 252.735C161.188 256.998 170.697 269.933 163.136 274.436C156.826 278.198 147.184 273.979 140.459 274.767C129.008 276.124 119.85 271.198 109.903 266.225Z" stroke="#11418B" stroke-width="0.689687"/>
<path fill-rule="evenodd" clip-rule="evenodd" d="M101.733 255.87C87.5895 248.383 73.7587 239.798 60.4949 230.636C51.9349 224.722 42.8348 218.584 35.8572 210.733C32.3515 206.791 30.3433 201.87 27.5354 197.405C24.6423 192.809 20.33 186.928 21.3343 181.695C22.2783 176.778 26.7103 171.726 28.3946 166.176C29.8859 161.25 28.8864 156.872 27.8395 152.116C27.1762 149.079 22.797 134.888 25.0608 134C27.4864 133.048 33.1533 137.198 36.3251 139.037C45.0723 144.091 53.5225 149.634 61.6391 155.644C72.7004 163.869 83.393 172.811 92.9058 182.847C99.6558 189.965 102.894 198.001 108.26 205.972C115.205 216.308 123.033 226.103 129.645 236.725C132.939 242.018 138.088 249.46 136.863 256.364C136.396 259.012 133.753 264.735 131.33 266.024C128.417 267.574 123.099 265.394 120.493 264.503C113.97 262.262 107.744 259.052 101.733 255.87Z" stroke="#11418B" stroke-width="0.689687"/>
</g>
</svg>
