<?xml version="1.0" standalone="no"?>
<!DOCTYPE svg PUBLIC "-//W3C//DTD SVG 20010904//EN"
 "http://www.w3.org/TR/2001/REC-SVG-20010904/DTD/svg10.dtd">
<svg version="1.0" xmlns="http://www.w3.org/2000/svg"
 width="482.000000pt" height="482.000000pt" viewBox="0 0 482.000000 482.000000"
 preserveAspectRatio="xMidYMid meet">
<metadata>
Created by potrace 1.14, written by Peter Selinger 2001-2017
</metadata>
<g transform="translate(0.000000,482.000000) scale(0.100000,-0.100000)"
fill="#000000" stroke="none">
<path d="M2535 4751 c-22 -10 -67 -31 -100 -47 -82 -38 -233 -129 -255 -154
-3 -3 -21 -17 -40 -31 -99 -75 -218 -194 -322 -323 -10 -11 -24 -28 -31 -36
-16 -18 -137 -189 -137 -194 0 -1 -26 -45 -57 -97 -57 -94 -223 -421 -223
-438 0 -5 -18 -49 -41 -98 -62 -135 -206 -549 -195 -560 2 -2 19 15 37 39 19
24 38 48 44 55 5 7 15 18 20 25 93 121 350 393 470 498 55 48 206 160 216 160
4 0 14 6 21 13 40 38 235 136 343 172 100 34 255 69 360 83 65 8 407 9 463 0
23 -3 42 -3 42 0 0 4 -42 34 -93 67 -222 144 -436 222 -597 218 -104 -3 -293
-14 -299 -18 -19 -11 -33 17 -36 68 -6 146 93 291 350 513 33 29 74 63 90 77
36 31 25 34 -30 8z"/>
<path d="M2480 4458 c-92 -64 -86 -182 13 -231 138 -69 282 67 202 190 -42 64
-151 84 -215 41z"/>
<path d="M1129 3542 c-100 -66 -166 -119 -229 -183 -126 -128 -167 -199 -235
-409 -25 -80 -50 -152 -54 -160 -21 -38 -155 29 -236 118 -46 52 -99 142 -144
250 -23 53 -46 105 -52 114 -5 10 -9 22 -9 27 0 6 -16 45 -35 88 l-35 78 5
-95 c2 -52 6 -104 9 -115 2 -11 7 -51 11 -90 4 -38 8 -72 10 -75 2 -3 6 -26
10 -50 9 -63 50 -235 70 -295 58 -172 169 -415 226 -497 11 -14 19 -28 19 -31
0 -9 113 -172 121 -175 5 -2 9 -10 9 -17 0 -7 3 -15 8 -17 4 -2 36 -39 72 -83
74 -91 237 -257 355 -360 44 -38 82 -72 85 -75 3 -3 50 -41 105 -83 55 -43
111 -86 125 -97 13 -10 26 -17 28 -16 2 2 -17 35 -41 72 -54 84 -166 297 -200
379 -35 87 -40 99 -42 105 -1 3 -5 14 -10 25 -4 11 -14 35 -22 54 -35 87 -90
333 -101 451 -8 90 -7 310 2 398 4 40 16 112 27 160 10 48 22 101 25 117 21
108 128 379 196 498 15 26 24 47 20 47 -4 -1 -46 -26 -93 -58z"/>
<path d="M2886 3502 c-2 -1 -56 -5 -121 -7 -64 -3 -136 -7 -159 -9 -22 -3 -72
-8 -111 -12 -113 -11 -117 -11 -179 -19 -61 -8 -60 -19 4 -28 19 -3 42 -8 50
-11 8 -3 47 -13 85 -21 175 -39 449 -127 605 -195 219 -96 316 -153 495 -290
29 -22 194 -188 233 -233 101 -121 254 -400 302 -552 16 -51 30 -67 31 -34 0
13 2 33 4 44 7 31 15 94 25 170 8 66 5 257 -4 300 -17 82 -41 156 -61 190 -12
22 -40 74 -61 115 -21 41 -51 97 -66 124 -36 60 -30 69 64 100 55 19 76 21
165 15 122 -8 199 -33 455 -143 48 -20 58 -20 57 2 0 20 -114 105 -240 180
-164 99 -393 188 -579 227 -8 1 -33 8 -55 13 -22 6 -62 13 -89 17 -27 3 -53 8
-56 10 -4 2 -31 7 -61 10 -30 3 -65 8 -79 10 -39 6 -158 16 -240 21 -91 5
-411 10 -414 6z"/>
<path d="M405 3320 c-28 -12 -85 -66 -86 -82 0 -7 -2 -22 -5 -33 -10 -51 48
-127 111 -144 74 -20 176 29 191 91 12 51 11 60 -10 100 -32 62 -135 96 -201
68z"/>
<path d="M4405 2815 c-44 -15 -90 -63 -97 -100 -6 -29 14 -90 38 -116 47 -52
134 -62 199 -24 94 55 91 179 -6 227 -50 25 -89 29 -134 13z"/>
<path d="M3689 2353 c-1 -183 -9 -334 -24 -453 -3 -19 -7 -53 -10 -75 -17
-135 -22 -166 -41 -240 -9 -33 -17 -67 -19 -75 -35 -146 -130 -356 -224 -496
-65 -95 -72 -103 -181 -214 -122 -123 -144 -141 -270 -228 -58 -39 -110 -76
-116 -81 -6 -5 -20 -12 -32 -15 -38 -13 -16 -22 47 -20 63 2 184 12 217 18 11
2 39 7 64 10 25 3 70 13 100 22 30 8 61 16 68 16 6 1 12 5 12 10 0 4 8 8 17 8
31 0 145 70 247 152 55 45 103 85 106 88 3 3 20 18 37 34 32 29 33 29 53 11
12 -11 36 -44 54 -74 31 -52 39 -74 53 -141 8 -40 9 -171 2 -215 -4 -22 -10
-60 -14 -85 -9 -59 -12 -76 -25 -135 -6 -27 -12 -61 -15 -75 -2 -14 -7 -38
-11 -54 -9 -41 10 -25 38 32 13 26 26 49 30 52 13 10 107 246 108 272 1 4 7
27 16 50 8 23 16 54 19 70 3 15 8 43 11 61 3 17 7 47 10 66 2 19 6 47 9 61 13
74 19 286 11 405 -6 79 -17 188 -22 210 -2 11 -6 40 -9 65 -6 68 -15 114 -42
235 -13 61 -26 118 -28 128 -2 10 -7 27 -10 37 -3 10 -8 27 -10 37 -25 109
-77 284 -128 428 -64 182 -81 225 -89 225 -4 0 -8 -57 -9 -127z"/>
<path d="M1255 2442 c-10 -11 -5 -60 8 -64 6 -2 465 -3 1020 -2 l1007 1 4 -21
c3 -12 5 -61 5 -111 -1 -49 0 -152 1 -227 2 -136 2 -138 25 -138 l22 0 -3 249
-3 248 27 1 c69 0 68 0 64 35 l-4 34 -1084 0 c-596 0 -1086 -2 -1089 -5z"/>
<path d="M2066 2323 c-1 -1 -73 -3 -159 -4 l-158 -3 3 -125 c2 -75 7 -126 13
-127 6 0 35 -4 65 -8 272 -36 743 -41 990 -11 25 3 63 8 85 10 l40 5 -2 63
c-1 34 -2 94 -2 133 l-1 71 -436 -1 c-240 -1 -437 -2 -438 -3z"/>
<path d="M1795 1976 c47 -42 110 -101 305 -286 79 -74 153 -144 165 -155 12
-11 38 -35 57 -54 l36 -33 84 83 c46 46 133 129 193 184 60 55 140 129 176
165 37 36 79 75 94 88 14 12 23 27 20 32 -4 6 -10 8 -14 6 -4 -3 -36 -8 -72
-12 -35 -3 -67 -8 -70 -10 -10 -6 -296 -19 -404 -19 -194 1 -397 16 -565 40
l-45 7 40 -36z"/>
<path d="M780 1541 c0 -21 53 -217 61 -226 5 -5 9 -16 9 -25 0 -29 88 -210
133 -272 57 -81 187 -199 333 -303 36 -26 41 -33 32 -49 -28 -50 -126 -118
-209 -146 -85 -27 -158 -34 -396 -34 -111 0 -199 -4 -195 -7 8 -8 76 -31 212
-73 74 -22 191 -49 270 -61 14 -2 39 -6 55 -9 206 -35 608 -28 805 14 25 5 61
12 80 15 19 3 62 13 95 21 33 9 68 17 77 19 39 8 268 90 326 116 35 16 66 29
68 29 17 0 349 173 449 234 64 38 61 42 -26 27 -155 -27 -277 -36 -504 -35
-201 0 -246 3 -380 25 -122 20 -301 65 -370 94 -128 52 -260 117 -333 162 -48
29 -94 56 -102 60 -8 4 -24 15 -34 25 -11 10 -38 30 -60 45 -23 15 -43 30 -46
33 -3 3 -34 29 -70 59 -36 30 -113 103 -172 163 -60 59 -108 104 -108 99z"/>
<path d="M725 885 c-106 -37 -133 -146 -54 -223 17 -16 47 -34 67 -38 33 -6
49 -6 87 0 25 4 72 40 88 68 36 62 13 139 -52 179 -17 10 -31 17 -31 15 0 -2
-15 0 -34 4 -21 4 -47 2 -71 -5z"/>
<path d="M3514 481 c-42 -12 -94 -56 -105 -88 -52 -159 184 -256 278 -114 37
55 26 117 -29 167 -33 31 -103 48 -144 35z"/>
</g>
</svg>
